<?xml version="1.0" encoding="utf-8" standalone="no"?>
<!DOCTYPE svg PUBLIC "-//W3C//DTD SVG 1.1//EN"
  "http://www.w3.org/Graphics/SVG/1.1/DTD/svg11.dtd">
<svg xmlns:xlink="http://www.w3.org/1999/xlink" width="432pt" height="360pt" viewBox="0 0 432 360" xmlns="http://www.w3.org/2000/svg" version="1.1">
 <metadata>
  <rdf:RDF xmlns:dc="http://purl.org/dc/elements/1.1/" xmlns:cc="http://creativecommons.org/ns#" xmlns:rdf="http://www.w3.org/1999/02/22-rdf-syntax-ns#">
   <cc:Work>
    <dc:type rdf:resource="http://purl.org/dc/dcmitype/StillImage"/>
    <dc:date>2026-03-12T12:04:48.777510</dc:date>
    <dc:format>image/svg+xml</dc:format>
    <dc:creator>
     <cc:Agent>
      <dc:title>Matplotlib v3.7.2, https://matplotlib.org/</dc:title>
     </cc:Agent>
    </dc:creator>
   </cc:Work>
  </rdf:RDF>
 </metadata>
 <defs>
  <style type="text/css">*{stroke-linejoin: round; stroke-linecap: butt}</style>
 </defs>
 <g id="figure_1">
  <g id="patch_1">
   <path d="M 0 360 
L 432 360 
L 432 0 
L 0 0 
z
" style="fill: #ffffff"/>
  </g>
  <g id="axes_1">
   <g id="patch_2">
    <path d="M 106.610522 267.073849 
L 396.056638 267.073849 
L 396.056638 62.120448 
L 106.610522 62.120448 
z
" style="fill: #ffffff"/>
   </g>
   <g id="matplotlib.axis_1">
    <g id="xtick_1">
     <g id="line2d_1">
      <defs>
       <path id="mf3f0cd19a0" d="M 0 0 
L 0 3.5 
" style="stroke: #000000; stroke-width: 0.8"/>
      </defs>
      <g>
       <use xlink:href="#mf3f0cd19a0" x="119.767164" y="267.073849" style="stroke: #000000; stroke-width: 0.8"/>
      </g>
     </g>
     <g id="text_1">
      <!-- $\mathdefault{0}$ -->
      <g transform="translate(112.793316 292.98666) scale(0.28 -0.28)">
       <defs>
        <path id="NimbusRomNo9L-Regu-30" d="M 1626 4352 
C 1274 4352 1005 4243 768 4019 
C 397 3661 154 2924 154 2176 
C 154 1478 365 729 666 371 
C 902 89 1229 -64 1600 -64 
C 1926 -64 2202 44 2432 268 
C 2803 620 3046 1363 3046 2137 
C 3046 3449 2464 4352 1626 4352 
z
M 1606 4185 
C 2144 4185 2432 3462 2432 2124 
C 2432 787 2150 102 1600 102 
C 1050 102 768 787 768 2118 
C 768 3475 1056 4185 1606 4185 
z
" transform="scale(0.015625)"/>
       </defs>
       <use xlink:href="#NimbusRomNo9L-Regu-30" transform="scale(0.996264)"/>
      </g>
     </g>
    </g>
    <g id="xtick_2">
     <g id="line2d_2">
      <g>
       <use xlink:href="#mf3f0cd19a0" x="251.33358" y="267.073849" style="stroke: #000000; stroke-width: 0.8"/>
      </g>
     </g>
     <g id="text_2">
      <!-- $\mathdefault{50}$ -->
      <g transform="translate(237.385884 292.98666) scale(0.28 -0.28)">
       <defs>
        <path id="NimbusRomNo9L-Regu-35" d="M 1158 3718 
L 2413 3718 
C 2515 3718 2541 3731 2560 3775 
L 2803 4345 
L 2746 4390 
C 2650 4256 2586 4224 2451 4224 
L 1114 4224 
L 416 2717 
C 410 2705 410 2698 410 2686 
C 410 2654 435 2635 486 2635 
C 691 2635 947 2591 1210 2508 
C 1946 2274 2285 1882 2285 1255 
C 2285 647 1894 172 1395 172 
C 1267 172 1158 217 966 356 
C 762 502 614 565 480 565 
C 294 565 205 489 205 331 
C 205 89 506 -64 986 -64 
C 1523 -64 1984 108 2304 432 
C 2598 717 2733 1078 2733 1559 
C 2733 2015 2611 2306 2291 2622 
C 2010 2901 1645 3047 890 3180 
L 1158 3718 
z
" transform="scale(0.015625)"/>
       </defs>
       <use xlink:href="#NimbusRomNo9L-Regu-35" transform="scale(0.996264)"/>
       <use xlink:href="#NimbusRomNo9L-Regu-30" transform="translate(49.8132 0) scale(0.996264)"/>
      </g>
     </g>
    </g>
    <g id="xtick_3">
     <g id="line2d_3">
      <g>
       <use xlink:href="#mf3f0cd19a0" x="382.899996" y="267.073849" style="stroke: #000000; stroke-width: 0.8"/>
      </g>
     </g>
     <g id="text_3">
      <!-- $\mathdefault{100}$ -->
      <g transform="translate(361.978452 292.98666) scale(0.28 -0.28)">
       <defs>
        <path id="NimbusRomNo9L-Regu-31" d="M 1862 4352 
L 710 3776 
L 710 3686 
C 787 3718 858 3743 883 3756 
C 998 3801 1107 3826 1171 3826 
C 1306 3826 1363 3731 1363 3525 
L 1363 599 
C 1363 386 1312 238 1210 179 
C 1114 121 1024 102 755 96 
L 755 0 
L 2522 0 
L 2522 96 
C 2016 102 1914 167 1914 477 
L 1914 4339 
L 1862 4352 
z
" transform="scale(0.015625)"/>
       </defs>
       <use xlink:href="#NimbusRomNo9L-Regu-31" transform="scale(0.996264)"/>
       <use xlink:href="#NimbusRomNo9L-Regu-30" transform="translate(49.8132 0) scale(0.996264)"/>
       <use xlink:href="#NimbusRomNo9L-Regu-30" transform="translate(99.626401 0) scale(0.996264)"/>
      </g>
     </g>
    </g>
    <g id="text_4">
     <!-- $tJ$ -->
     <g transform="translate(237.96194 323.289513) scale(0.3 -0.3)">
      <defs>
       <path id="CMMI12-74" d="M 1286 2566 
L 1875 2566 
C 1997 2566 2061 2566 2061 2681 
C 2061 2752 2022 2752 1894 2752 
L 1331 2752 
L 1568 3664 
C 1594 3752 1594 3764 1594 3808 
C 1594 3910 1510 3968 1427 3968 
C 1376 3968 1229 3948 1178 3746 
L 928 2752 
L 326 2752 
C 198 2752 141 2752 141 2630 
C 141 2566 186 2566 307 2566 
L 877 2566 
L 454 881 
C 403 657 384 593 384 510 
C 384 210 595 -64 954 -64 
C 1600 -64 1946 868 1946 913 
C 1946 951 1920 970 1882 970 
C 1869 970 1843 970 1830 944 
C 1824 938 1818 932 1773 830 
C 1638 510 1344 64 973 64 
C 781 64 768 223 768 364 
C 768 370 768 491 787 568 
L 1286 2566 
z
" transform="scale(0.015625)"/>
       <path id="CMMI12-4a" d="M 3418 3911 
C 3469 4102 3482 4166 3795 4166 
C 3898 4166 3962 4166 3962 4281 
C 3962 4352 3904 4352 3878 4352 
C 3770 4352 3648 4339 3533 4339 
L 3181 4339 
C 2912 4339 2630 4352 2362 4352 
C 2304 4352 2227 4352 2227 4236 
C 2227 4172 2278 4172 2278 4166 
L 2438 4166 
C 2950 4166 2950 4115 2950 4019 
C 2950 4013 2950 3968 2925 3866 
L 2189 953 
C 2022 304 1594 0 1286 0 
C 1069 0 762 99 685 428 
C 710 422 742 415 768 415 
C 979 415 1146 601 1146 787 
C 1146 889 1082 1024 890 1024 
C 774 1024 506 959 506 543 
C 506 149 838 -128 1299 -128 
C 1882 -128 2509 304 2662 908 
L 3418 3911 
z
" transform="scale(0.015625)"/>
      </defs>
      <use xlink:href="#CMMI12-74" transform="scale(0.996264)"/>
      <use xlink:href="#CMMI12-4a" transform="translate(35.22633 0) scale(0.996264)"/>
     </g>
    </g>
   </g>
   <g id="matplotlib.axis_2">
    <g id="ytick_1">
     <g id="line2d_4">
      <defs>
       <path id="m66885086ec" d="M 0 0 
L -3.5 0 
" style="stroke: #000000; stroke-width: 0.8"/>
      </defs>
      <g>
       <use xlink:href="#m66885086ec" x="106.610522" y="249.994399" style="stroke: #000000; stroke-width: 0.8"/>
      </g>
     </g>
     <g id="text_5">
      <!-- $\mathdefault{0.0}$ -->
      <g transform="translate(64.12792 259.450804) scale(0.28 -0.28)">
       <defs>
        <path id="CMMI12-3a" d="M 1178 307 
C 1178 492 1024 620 870 620 
C 685 620 557 467 557 313 
C 557 128 710 0 864 0 
C 1050 0 1178 153 1178 307 
z
" transform="scale(0.015625)"/>
       </defs>
       <use xlink:href="#NimbusRomNo9L-Regu-30" transform="scale(0.996264)"/>
       <use xlink:href="#CMMI12-3a" transform="translate(49.8132 0) scale(0.996264)"/>
       <use xlink:href="#NimbusRomNo9L-Regu-30" transform="translate(76.910378 0) scale(0.996264)"/>
      </g>
     </g>
    </g>
    <g id="ytick_2">
     <g id="line2d_5">
      <g>
       <use xlink:href="#m66885086ec" x="106.610522" y="164.597149" style="stroke: #000000; stroke-width: 0.8"/>
      </g>
     </g>
     <g id="text_6">
      <!-- $\mathdefault{0.5}$ -->
      <g transform="translate(64.12792 174.053554) scale(0.28 -0.28)">
       <use xlink:href="#NimbusRomNo9L-Regu-30" transform="scale(0.996264)"/>
       <use xlink:href="#CMMI12-3a" transform="translate(49.8132 0) scale(0.996264)"/>
       <use xlink:href="#NimbusRomNo9L-Regu-35" transform="translate(76.910378 0) scale(0.996264)"/>
      </g>
     </g>
    </g>
    <g id="ytick_3">
     <g id="line2d_6">
      <g>
       <use xlink:href="#m66885086ec" x="106.610522" y="79.199898" style="stroke: #000000; stroke-width: 0.8"/>
      </g>
     </g>
     <g id="text_7">
      <!-- $\mathdefault{1.0}$ -->
      <g transform="translate(64.12792 88.656304) scale(0.28 -0.28)">
       <use xlink:href="#NimbusRomNo9L-Regu-31" transform="scale(0.996264)"/>
       <use xlink:href="#CMMI12-3a" transform="translate(49.8132 0) scale(0.996264)"/>
       <use xlink:href="#NimbusRomNo9L-Regu-30" transform="translate(76.910378 0) scale(0.996264)"/>
      </g>
     </g>
    </g>
    <g id="text_8">
     <!-- $n(t)$ -->
     <g transform="translate(52.65594 190.225233) rotate(-90) scale(0.3 -0.3)">
      <defs>
       <path id="CMMI12-6e" d="M 1318 1870 
C 1331 1909 1491 2228 1728 2432 
C 1894 2585 2112 2687 2362 2687 
C 2618 2687 2707 2496 2707 2241 
C 2707 1877 2445 1149 2317 804 
C 2259 651 2227 568 2227 453 
C 2227 166 2426 -64 2733 -64 
C 3328 -64 3552 874 3552 913 
C 3552 945 3526 970 3488 970 
C 3430 970 3424 951 3392 842 
C 3245 319 3002 64 2752 64 
C 2688 64 2586 70 2586 274 
C 2586 434 2656 625 2694 715 
C 2822 1066 3091 1781 3091 2145 
C 3091 2528 2867 2816 2381 2816 
C 1811 2816 1510 2413 1395 2253 
C 1376 2617 1114 2816 832 2816 
C 627 2816 486 2694 378 2477 
C 262 2247 173 1864 173 1838 
C 173 1813 198 1781 243 1781 
C 294 1781 301 1787 339 1934 
C 442 2324 557 2687 813 2687 
C 960 2687 1011 2585 1011 2394 
C 1011 2253 947 2004 902 1807 
L 723 1117 
C 698 996 627 708 595 593 
C 550 427 480 127 480 95 
C 480 6 550 -64 646 -64 
C 723 -64 813 -26 864 70 
C 877 102 934 325 966 453 
L 1107 1028 
L 1318 1870 
z
" transform="scale(0.015625)"/>
       <path id="CMR10-28" d="M 2118 -1536 
C 2118 -1517 2118 -1504 2010 -1396 
C 1210 -589 1005 620 1005 1600 
C 1005 2713 1248 3827 2035 4627 
C 2118 4704 2118 4716 2118 4736 
C 2118 4780 2093 4800 2054 4800 
C 1990 4800 1414 4365 1037 3552 
C 710 2848 634 2137 634 1600 
C 634 1100 704 326 1056 -397 
C 1440 -1184 1990 -1600 2054 -1600 
C 2093 -1600 2118 -1581 2118 -1536 
z
" transform="scale(0.015625)"/>
       <path id="CMR10-29" d="M 1850 1600 
C 1850 2099 1779 2873 1427 3597 
C 1043 4384 493 4800 429 4800 
C 390 4800 365 4774 365 4736 
C 365 4716 365 4704 486 4589 
C 1114 3955 1478 2937 1478 1600 
C 1478 505 1242 -621 448 -1428 
C 365 -1504 365 -1517 365 -1536 
C 365 -1575 390 -1600 429 -1600 
C 493 -1600 1069 -1165 1446 -352 
C 1773 352 1850 1062 1850 1600 
z
" transform="scale(0.015625)"/>
      </defs>
      <use xlink:href="#CMMI12-6e" transform="scale(0.996264)"/>
      <use xlink:href="#CMR10-28" transform="translate(58.230047 0) scale(0.996264)"/>
      <use xlink:href="#CMMI12-74" transform="translate(96.883893 0) scale(0.996264)"/>
      <use xlink:href="#CMR10-29" transform="translate(132.110223 0) scale(0.996264)"/>
     </g>
    </g>
   </g>
   <g id="line2d_7">
    <path d="M 119.767164 249.994399 
L 123.718107 249.889988 
L 125.825277 249.53419 
L 127.405654 249.091622 
L 128.722636 248.496233 
L 131.356598 247.213682 
L 135.834334 245.632894 
L 138.995088 244.917002 
L 140.31207 244.192555 
L 142.419239 242.686985 
L 143.736221 241.541983 
L 145.053202 240.106789 
L 147.160372 237.730282 
L 148.477353 236.64225 
L 151.901504 234.327602 
L 153.481881 233.589991 
L 154.798862 232.936986 
L 155.852447 232.101643 
L 156.906032 230.954202 
L 159.276598 227.899693 
L 160.856975 225.593873 
L 163.754334 221.08528 
L 164.807919 219.941171 
L 166.915089 218.159008 
L 169.285655 216.281965 
L 171.129428 214.962476 
L 171.919617 214.15306 
L 172.973202 212.699059 
L 174.553579 209.99614 
L 180.611693 199.418251 
L 181.665277 198.339981 
L 187.459994 193.320028 
L 188.250183 192.372344 
L 189.303768 190.687011 
L 190.620749 188.047831 
L 193.254712 182.739685 
L 196.15207 177.415306 
L 197.205655 176.041527 
L 197.995844 175.336876 
L 201.683391 172.597584 
L 203.790561 170.508257 
L 204.844146 169.112654 
L 205.89773 167.23284 
L 207.741504 163.190424 
L 209.321881 159.974133 
L 211.165655 156.772141 
L 212.482636 154.771407 
L 213.272825 153.850584 
L 214.063014 153.222898 
L 215.116598 152.755235 
L 216.696976 152.140602 
L 217.750561 151.414981 
L 219.330938 149.947472 
L 220.647919 148.475779 
L 221.701504 146.922043 
L 222.755089 144.913698 
L 225.389051 139.512213 
L 226.706033 137.526253 
L 228.28641 135.621065 
L 229.339995 134.647191 
L 230.130183 134.192704 
L 230.920372 134.003686 
L 233.554334 133.781833 
L 234.344523 133.351389 
L 235.398108 132.504233 
L 236.978485 130.908731 
L 238.03207 129.554366 
L 239.085655 127.833537 
L 241.719618 123.249916 
L 242.509806 122.340893 
L 243.563391 121.513626 
L 244.880372 120.82984 
L 245.933957 120.50545 
L 246.724146 120.462199 
L 247.777731 120.679276 
L 249.094712 121.013742 
L 249.884901 120.96008 
L 250.675089 120.604235 
L 251.465278 119.97983 
L 252.782259 118.615463 
L 254.626033 116.42661 
L 257.786787 112.295536 
L 258.576976 111.792042 
L 259.367165 111.646258 
L 260.157354 111.776076 
L 261.474335 112.302152 
L 262.791316 113.050187 
L 263.844901 113.883533 
L 265.952071 115.67067 
L 266.742259 115.976745 
L 267.532448 115.971756 
L 268.322637 115.718211 
L 269.903014 114.884717 
L 271.483391 113.867472 
L 274.38075 111.745228 
L 275.170939 111.624782 
L 275.961127 111.84149 
L 276.751316 112.322752 
L 278.331693 113.633327 
L 280.175467 115.393876 
L 282.282637 117.493452 
L 283.072825 117.947749 
L 283.863014 118.090185 
L 284.653203 117.96199 
L 286.23358 117.347313 
L 289.657731 116.052755 
L 290.44792 115.918691 
L 291.238108 116.058918 
L 292.028297 116.551996 
L 292.818486 117.374607 
L 294.135467 119.156146 
L 298.08641 124.574845 
L 299.139995 125.821449 
L 299.930184 126.486583 
L 300.720373 126.876968 
L 301.773958 127.08179 
L 303.617731 127.342359 
L 304.934712 127.80679 
L 306.251694 128.52465 
L 307.041882 129.158098 
L 307.832071 130.036116 
L 308.885656 131.636583 
L 310.466033 134.621434 
L 312.573203 138.470567 
L 314.416977 141.420732 
L 315.470562 142.769042 
L 316.26075 143.461415 
L 317.050939 143.845227 
L 318.104524 144.008256 
L 319.684901 144.183055 
L 320.738486 144.564753 
L 322.318863 145.438273 
L 323.635845 146.400862 
L 324.426033 147.226507 
L 325.216222 148.32982 
L 326.269807 150.198122 
L 328.903769 155.117306 
L 330.484147 157.46807 
L 332.32792 159.866446 
L 333.644901 161.205926 
L 335.225279 162.398116 
L 336.54226 163.474555 
L 337.595845 164.621166 
L 338.912826 166.428105 
L 340.229807 168.59192 
L 341.810184 171.651085 
L 344.707543 177.426374 
L 346.024524 179.486584 
L 347.341505 181.166285 
L 348.39509 182.220205 
L 349.448675 182.955151 
L 350.765656 183.506943 
L 352.082637 184.069171 
L 352.872826 184.612113 
L 353.926411 185.636004 
L 355.243392 187.255883 
L 356.823769 189.559952 
L 358.140751 191.967845 
L 362.091694 199.884557 
L 363.672071 202.070969 
L 365.515845 204.285046 
L 366.832826 205.508174 
L 368.413203 206.564434 
L 369.730185 207.564174 
L 370.783769 208.671953 
L 372.627543 211.031577 
L 376.051694 215.695351 
L 378.158864 218.596094 
L 379.475845 220.000974 
L 381.583015 221.790892 
L 382.899996 222.895789 
L 382.899996 222.895789 
" clip-path="url(#p2150ff5271)" style="fill: none; stroke: #1f77b4; stroke-width: 4; stroke-linecap: square"/>
   </g>
   <g id="line2d_8">
    <path d="M 119.767164 79.199898 
L 120.03056 79.302186 
L 120.293956 79.604369 
L 120.820749 80.74603 
L 121.610937 83.402687 
L 123.454711 90.174247 
L 125.561881 97.228896 
L 127.405654 104.137941 
L 127.932447 105.496037 
L 128.459239 106.313504 
L 128.722636 106.503618 
L 128.986032 106.550819 
L 129.249428 106.464107 
L 129.77622 105.94819 
L 130.566409 104.618118 
L 132.146787 101.8209 
L 134.517353 98.30024 
L 136.09773 95.558502 
L 136.624522 95.135672 
L 136.887919 95.093285 
L 137.151315 95.17392 
L 137.678107 95.700413 
L 138.2049 96.651972 
L 139.258485 99.275427 
L 140.575466 102.529715 
L 144.789805 111.589621 
L 145.316598 112.191941 
L 145.84339 112.43589 
L 146.370183 112.338614 
L 146.896975 111.975533 
L 149.004145 110.066533 
L 150.05773 109.630775 
L 152.691692 108.885695 
L 153.218485 109.074371 
L 153.745277 109.560692 
L 154.27207 110.371547 
L 155.062258 112.115899 
L 158.223013 120.039294 
L 160.593579 124.776654 
L 161.383768 126.041746 
L 162.173957 126.851442 
L 162.700749 127.087722 
L 163.227541 127.101465 
L 164.01773 126.845494 
L 165.071315 126.444029 
L 165.861504 126.393126 
L 166.651692 126.608213 
L 167.968674 127.277922 
L 169.022258 127.98575 
L 169.812447 128.814003 
L 170.602636 130.100257 
L 171.392825 131.888015 
L 174.816976 140.647059 
L 176.660749 144.132622 
L 177.97773 146.203428 
L 178.767919 147.037463 
L 179.558108 147.482641 
L 180.348296 147.632163 
L 181.665277 147.798113 
L 182.455466 148.15303 
L 183.245655 148.762782 
L 184.562636 150.151201 
L 185.879617 151.877003 
L 186.933202 153.727988 
L 187.986787 156.153873 
L 191.147542 164.023366 
L 192.464523 166.421222 
L 194.0449 168.857036 
L 195.098485 170.142121 
L 195.888674 170.815898 
L 196.942259 171.370168 
L 198.25924 171.998415 
L 199.049429 172.623526 
L 200.103013 173.835895 
L 201.683391 176.132993 
L 203.000372 178.360565 
L 204.053957 180.523115 
L 207.741504 188.745054 
L 209.058485 190.817038 
L 210.638863 192.921631 
L 211.955844 194.323662 
L 213.009429 195.133437 
L 215.116598 196.629785 
L 216.170183 197.781525 
L 217.487165 199.631489 
L 219.594334 203.049025 
L 221.174712 206.020956 
L 223.545278 210.529578 
L 224.862259 212.432823 
L 226.442636 214.22966 
L 228.28641 216.022923 
L 229.603391 217.027638 
L 231.710561 218.579539 
L 232.764146 219.683498 
L 234.607919 222.06267 
L 237.505278 226.142402 
L 239.612448 229.139465 
L 240.929429 230.617146 
L 242.509806 231.971042 
L 244.880372 233.659431 
L 249.358108 236.644538 
L 252.255467 239.417203 
L 255.679618 242.508439 
L 256.996599 243.456598 
L 258.576976 244.297203 
L 261.474335 245.501232 
L 272.010184 249.317343 
L 274.117354 249.676593 
L 277.014712 249.900922 
L 280.438863 249.959873 
L 283.336222 249.817415 
L 285.706788 249.462023 
L 288.077354 248.901956 
L 297.032826 246.270799 
L 298.876599 245.455744 
L 300.983769 244.2239 
L 307.305278 240.3689 
L 311.519618 238.044244 
L 313.626788 236.531695 
L 315.207165 235.146112 
L 317.050939 233.171339 
L 321.001882 228.912265 
L 323.372448 226.500642 
L 324.952826 225.25626 
L 326.796599 223.796773 
L 328.903769 221.759747 
L 332.32792 218.241132 
L 336.805656 213.103417 
L 344.444147 205.719521 
L 346.28792 203.301468 
L 348.39509 200.168417 
L 351.555845 195.347702 
L 353.663015 192.704485 
L 355.506788 190.687494 
L 356.823769 189.596619 
L 359.457732 187.642849 
L 361.038109 186.025502 
L 365.252449 181.316929 
L 369.203392 175.99735 
L 371.573958 173.379906 
L 373.944524 170.584869 
L 375.788298 168.975721 
L 377.105279 167.645972 
L 380.52943 163.763431 
L 382.899996 161.587685 
L 382.899996 161.587685 
" clip-path="url(#p2150ff5271)" style="fill: none; stroke: #ff7f0e; stroke-width: 4; stroke-linecap: square"/>
   </g>
   <g id="patch_3">
    <path d="M 106.610522 267.073849 
L 106.610522 62.120448 
" style="fill: none; stroke: #000000; stroke-width: 0.8; stroke-linejoin: miter; stroke-linecap: square"/>
   </g>
   <g id="patch_4">
    <path d="M 396.056638 267.073849 
L 396.056638 62.120448 
" style="fill: none; stroke: #000000; stroke-width: 0.8; stroke-linejoin: miter; stroke-linecap: square"/>
   </g>
   <g id="patch_5">
    <path d="M 106.610522 267.073849 
L 396.056638 267.073849 
" style="fill: none; stroke: #000000; stroke-width: 0.8; stroke-linejoin: miter; stroke-linecap: square"/>
   </g>
   <g id="patch_6">
    <path d="M 106.610522 62.120448 
L 396.056638 62.120448 
" style="fill: none; stroke: #000000; stroke-width: 0.8; stroke-linejoin: miter; stroke-linecap: square"/>
   </g>
   <g id="text_9">
    <!-- $\omega_{DF}/J=\pm 1,\ \Delta x=2$ -->
    <g transform="translate(108.485076 54.150336) scale(0.32 -0.32)">
     <defs>
      <path id="CMMI12-21" d="M 3802 2406 
C 3802 2592 3750 2828 3526 2828 
C 3398 2828 3251 2668 3251 2540 
C 3251 2483 3277 2444 3328 2387 
C 3424 2278 3546 2105 3546 1804 
C 3546 1574 3405 1209 3302 1011 
C 3123 659 2829 358 2496 358 
C 2093 358 1939 614 1869 972 
C 1939 1139 2086 1555 2086 1721 
C 2086 1792 2061 1849 1978 1849 
C 1933 1849 1882 1824 1850 1772 
C 1760 1632 1677 1126 1683 992 
C 1562 755 1216 358 806 358 
C 378 358 262 736 262 1100 
C 262 1766 678 2348 794 2508 
C 858 2604 902 2668 902 2681 
C 902 2726 877 2796 819 2796 
C 717 2796 685 2713 634 2636 
C 307 2131 77 1420 77 806 
C 77 409 224 -64 704 -64 
C 1235 -64 1568 390 1702 633 
C 1754 275 1946 -64 2413 -64 
C 2899 -64 3206 364 3437 883 
C 3603 1254 3802 2054 3802 2406 
z
" transform="scale(0.015625)"/>
      <path id="CMMI12-44" d="M 1005 472 
C 947 249 934 185 486 185 
C 365 185 301 185 301 70 
C 301 0 339 0 467 0 
L 2496 0 
C 3789 0 5050 1332 5050 2752 
C 5050 3669 4499 4352 3584 4352 
L 1530 4352 
C 1408 4352 1350 4352 1350 4230 
C 1350 4166 1408 4166 1504 4166 
C 1894 4166 1894 4115 1894 4045 
C 1894 4032 1894 3994 1869 3898 
L 1005 472 
z
M 2355 3917 
C 2413 4153 2438 4166 2688 4166 
L 3392 4166 
C 3994 4166 4544 3841 4544 2962 
C 4544 2644 4416 1535 3795 835 
C 3616 625 3130 185 2394 185 
L 1664 185 
C 1574 185 1562 185 1523 191 
C 1453 198 1446 211 1446 262 
C 1446 306 1459 344 1472 402 
L 2355 3917 
z
" transform="scale(0.015625)"/>
      <path id="CMMI12-46" d="M 1901 2054 
L 2515 2054 
C 3002 2054 3040 1947 3040 1764 
C 3040 1683 3027 1595 2995 1456 
C 2982 1431 2976 1399 2976 1387 
C 2976 1343 3002 1318 3046 1318 
C 3098 1318 3104 1343 3130 1444 
L 3501 2929 
C 3501 2955 3482 2993 3437 2993 
C 3379 2993 3373 2968 3347 2858 
C 3213 2375 3085 2240 2528 2240 
L 1946 2240 
L 2362 3908 
C 2419 4134 2432 4153 2694 4153 
L 3552 4153 
C 4352 4153 4467 3915 4467 3457 
C 4467 3419 4467 3277 4448 3109 
C 4442 3084 4429 3000 4429 2974 
C 4429 2922 4461 2903 4499 2903 
C 4544 2903 4570 2929 4582 3045 
L 4717 4172 
C 4717 4191 4730 4255 4730 4268 
C 4730 4339 4672 4339 4557 4339 
L 1523 4339 
C 1402 4339 1338 4339 1338 4223 
C 1338 4153 1382 4153 1491 4153 
C 1888 4153 1888 4108 1888 4037 
C 1888 4005 1882 3979 1862 3908 
L 998 468 
C 941 248 928 185 480 185 
C 358 185 294 185 294 70 
C 294 0 352 0 390 0 
C 512 0 640 12 762 12 
L 1594 12 
C 1734 12 1888 0 2029 0 
C 2086 0 2163 0 2163 115 
C 2163 185 2125 185 1984 185 
C 1478 185 1466 229 1466 324 
C 1466 355 1478 405 1491 449 
L 1901 2054 
z
" transform="scale(0.015625)"/>
      <path id="CMMI12-3d" d="M 2746 4563 
C 2746 4569 2784 4665 2784 4678 
C 2784 4755 2720 4800 2669 4800 
C 2637 4800 2579 4800 2528 4659 
L 384 -1364 
C 384 -1370 346 -1466 346 -1479 
C 346 -1556 410 -1600 461 -1600 
C 499 -1600 557 -1594 602 -1460 
L 2746 4563 
z
" transform="scale(0.015625)"/>
      <path id="CMR10-3d" d="M 4397 2111 
C 4493 2111 4614 2111 4614 2239 
C 4614 2368 4493 2368 4403 2368 
L 570 2368 
C 480 2368 358 2368 358 2239 
C 358 2111 480 2111 576 2111 
L 4397 2111 
z
M 4403 832 
C 4493 832 4614 832 4614 960 
C 4614 1088 4493 1088 4397 1088 
L 576 1088 
C 480 1088 358 1088 358 960 
C 358 832 480 832 570 832 
L 4403 832 
z
" transform="scale(0.015625)"/>
      <path id="CMSY10-6" d="M 2618 1984 
L 4397 1984 
C 4506 1984 4621 1984 4621 2112 
C 4621 2240 4506 2240 4397 2240 
L 2618 2240 
L 2618 4048 
C 2618 4153 2618 4288 2490 4288 
C 2362 4288 2362 4172 2362 4068 
L 2362 2240 
L 576 2240 
C 467 2240 352 2240 352 2112 
C 352 1984 467 1984 576 1984 
L 2362 1984 
L 2362 256 
L 576 256 
C 467 256 352 256 352 128 
C 352 0 467 0 576 0 
L 4397 0 
C 4506 0 4621 0 4621 128 
C 4621 256 4506 256 4397 256 
L 2618 256 
L 2618 1984 
z
" transform="scale(0.015625)"/>
      <path id="CMMI12-3b" d="M 1248 -26 
C 1248 345 1126 620 864 620 
C 659 620 557 454 557 313 
C 557 172 653 0 870 0 
C 954 0 1024 25 1082 83 
C 1094 96 1101 96 1107 96 
C 1120 96 1120 6 1120 -26 
C 1120 -233 1082 -642 710 -1051 
C 640 -1127 640 -1140 640 -1152 
C 640 -1184 672 -1216 704 -1216 
C 755 -1216 1248 -749 1248 -26 
z
" transform="scale(0.015625)"/>
      <path id="StandardSymL-44" d="M 38 0 
L 3891 0 
L 2093 4416 
L 38 0 
z
M 493 327 
L 1856 3267 
L 3066 327 
L 493 327 
z
" transform="scale(0.015625)"/>
      <path id="CMMI12-78" d="M 3034 2624 
C 2829 2585 2752 2431 2752 2310 
C 2752 2156 2874 2105 2963 2105 
C 3155 2105 3290 2271 3290 2444 
C 3290 2694 2982 2816 2714 2816 
C 2323 2816 2106 2451 2048 2329 
C 1901 2790 1504 2816 1389 2816 
C 736 2816 390 1993 390 1849 
C 390 1823 416 1790 461 1790 
C 512 1790 525 1829 538 1855 
C 755 2572 1184 2687 1370 2687 
C 1658 2687 1715 2438 1715 2284 
C 1715 2143 1677 1993 1600 1678 
L 1382 778 
C 1286 390 1101 64 762 64 
C 730 64 570 64 435 126 
C 666 166 717 358 717 435 
C 717 563 621 640 499 640 
C 346 640 179 505 179 300 
C 179 57 480 -64 755 -64 
C 1062 -64 1280 153 1414 415 
C 1517 64 1837 -64 2074 -64 
C 2726 -64 3072 751 3072 896 
C 3072 929 3046 955 3008 955 
C 2950 955 2944 922 2925 870 
C 2752 300 2381 64 2093 64 
C 1869 64 1747 204 1747 467 
C 1747 607 1773 712 1875 1146 
L 2099 2039 
C 2195 2425 2413 2687 2707 2687 
C 2720 2687 2899 2687 3034 2624 
z
" transform="scale(0.015625)"/>
      <path id="NimbusRomNo9L-Regu-32" d="M 3040 879 
L 2957 912 
C 2720 544 2637 486 2349 486 
L 819 486 
L 1894 1621 
C 2464 2221 2714 2711 2714 3214 
C 2714 3858 2195 4352 1530 4352 
C 1178 4352 845 4211 608 3955 
C 403 3736 307 3530 198 3072 
L 333 3039 
C 589 3671 819 3878 1261 3878 
C 1798 3878 2163 3510 2163 2969 
C 2163 2466 1869 1866 1331 1292 
L 192 76 
L 192 0 
L 2688 0 
L 3040 879 
z
" transform="scale(0.015625)"/>
     </defs>
     <use xlink:href="#CMMI12-21" transform="scale(0.996264)"/>
     <use xlink:href="#CMMI12-44" transform="translate(60.743753 -16.107216) scale(0.737241)"/>
     <use xlink:href="#CMMI12-46" transform="translate(122.685118 -16.107216) scale(0.737241)"/>
     <use xlink:href="#CMMI12-3d" transform="translate(179.939272 0) scale(0.996264)"/>
     <use xlink:href="#CMMI12-4a" transform="translate(228.714191 0) scale(0.996264)"/>
     <use xlink:href="#CMR10-3d" transform="translate(313.996007 0) scale(0.996264)"/>
     <use xlink:href="#CMSY10-6" transform="translate(413.543861 0) scale(0.996264)"/>
     <use xlink:href="#NimbusRomNo9L-Regu-31" transform="translate(490.952568 0) scale(0.996264)"/>
     <use xlink:href="#CMMI12-3b" transform="translate(540.765769 0) scale(0.996264)"/>
     <use xlink:href="#StandardSymL-44" transform="translate(603.839119 0) scale(0.996264)"/>
     <use xlink:href="#CMMI12-78" transform="translate(664.810519 0) scale(0.996264)"/>
     <use xlink:href="#CMR10-3d" transform="translate(742.383725 0) scale(0.996264)"/>
     <use xlink:href="#NimbusRomNo9L-Regu-32" transform="translate(841.931578 0) scale(0.996264)"/>
    </g>
   </g>
   <g id="legend_1">
    <g id="patch_7">
     <path d="M 257.041738 149.273227 
L 379.256638 149.273227 
Q 384.056638 149.273227 384.056638 144.473227 
L 384.056638 78.920448 
Q 384.056638 74.120448 379.256638 74.120448 
L 257.041738 74.120448 
Q 252.241738 74.120448 252.241738 78.920448 
L 252.241738 144.473227 
Q 252.241738 149.273227 257.041738 149.273227 
z
" style="fill: #ffffff; opacity: 0.6; stroke: #cccccc; stroke-linejoin: miter"/>
    </g>
    <g id="line2d_9">
     <path d="M 261.841738 92.120448 
L 285.841738 92.120448 
L 309.841738 92.120448 
" style="fill: none; stroke: #1f77b4; stroke-width: 4; stroke-linecap: square"/>
    </g>
    <g id="text_10">
     <!-- $n^{(20)}$ -->
     <g transform="translate(329.041738 100.520448) scale(0.24 -0.24)">
      <use xlink:href="#CMMI12-6e" transform="scale(0.996264)"/>
      <use xlink:href="#CMR10-28" transform="translate(58.230047 36.163231) scale(0.737241)"/>
      <use xlink:href="#NimbusRomNo9L-Regu-32" transform="translate(86.834101 36.163231) scale(0.737241)"/>
      <use xlink:href="#NimbusRomNo9L-Regu-30" transform="translate(123.696143 36.163231) scale(0.737241)"/>
      <use xlink:href="#CMR10-29" transform="translate(160.558185 36.163231) scale(0.737241)"/>
     </g>
    </g>
    <g id="line2d_10">
     <path d="M 261.841738 126.096838 
L 285.841738 126.096838 
L 309.841738 126.096838 
" style="fill: none; stroke: #ff7f0e; stroke-width: 4; stroke-linecap: square"/>
    </g>
    <g id="text_11">
     <!-- $n^{(11)}$ -->
     <g transform="translate(329.041738 134.496838) scale(0.24 -0.24)">
      <use xlink:href="#CMMI12-6e" transform="scale(0.996264)"/>
      <use xlink:href="#CMR10-28" transform="translate(58.230047 36.163231) scale(0.737241)"/>
      <use xlink:href="#NimbusRomNo9L-Regu-31" transform="translate(86.834101 36.163231) scale(0.737241)"/>
      <use xlink:href="#NimbusRomNo9L-Regu-31" transform="translate(123.696143 36.163231) scale(0.737241)"/>
      <use xlink:href="#CMR10-29" transform="translate(160.558185 36.163231) scale(0.737241)"/>
     </g>
    </g>
   </g>
  </g>
 </g>
 <defs>
  <clipPath id="p2150ff5271">
   <rect x="106.610522" y="62.120448" width="289.446115" height="204.9534"/>
  </clipPath>
 </defs>
</svg>
