<?xml version="1.0" encoding="utf-8" standalone="no"?>
<!DOCTYPE svg PUBLIC "-//W3C//DTD SVG 1.1//EN"
  "http://www.w3.org/Graphics/SVG/1.1/DTD/svg11.dtd">
<svg xmlns:xlink="http://www.w3.org/1999/xlink" width="432pt" height="360pt" viewBox="0 0 432 360" xmlns="http://www.w3.org/2000/svg" version="1.1">
 <metadata>
  <rdf:RDF xmlns:dc="http://purl.org/dc/elements/1.1/" xmlns:cc="http://creativecommons.org/ns#" xmlns:rdf="http://www.w3.org/1999/02/22-rdf-syntax-ns#">
   <cc:Work>
    <dc:type rdf:resource="http://purl.org/dc/dcmitype/StillImage"/>
    <dc:date>2026-03-12T11:38:33.204708</dc:date>
    <dc:format>image/svg+xml</dc:format>
    <dc:creator>
     <cc:Agent>
      <dc:title>Matplotlib v3.7.2, https://matplotlib.org/</dc:title>
     </cc:Agent>
    </dc:creator>
   </cc:Work>
  </rdf:RDF>
 </metadata>
 <defs>
  <style type="text/css">*{stroke-linejoin: round; stroke-linecap: butt}</style>
 </defs>
 <g id="figure_1">
  <g id="patch_1">
   <path d="M 0 360 
L 432 360 
L 432 0 
L 0 0 
z
" style="fill: #ffffff"/>
  </g>
  <g id="axes_1">
   <g id="patch_2">
    <path d="M 106.610522 267.073849 
L 396.056638 267.073849 
L 396.056638 62.120448 
L 106.610522 62.120448 
z
" style="fill: #ffffff"/>
   </g>
   <g id="matplotlib.axis_1">
    <g id="xtick_1">
     <g id="line2d_1">
      <defs>
       <path id="mdb9f0e0799" d="M 0 0 
L 0 3.5 
" style="stroke: #000000; stroke-width: 0.8"/>
      </defs>
      <g>
       <use xlink:href="#mdb9f0e0799" x="119.767164" y="267.073849" style="stroke: #000000; stroke-width: 0.8"/>
      </g>
     </g>
     <g id="text_1">
      <!-- $\mathdefault{0}$ -->
      <g transform="translate(112.793316 292.98666) scale(0.28 -0.28)">
       <defs>
        <path id="NimbusRomNo9L-Regu-30" d="M 1626 4352 
C 1274 4352 1005 4243 768 4019 
C 397 3661 154 2924 154 2176 
C 154 1478 365 729 666 371 
C 902 89 1229 -64 1600 -64 
C 1926 -64 2202 44 2432 268 
C 2803 620 3046 1363 3046 2137 
C 3046 3449 2464 4352 1626 4352 
z
M 1606 4185 
C 2144 4185 2432 3462 2432 2124 
C 2432 787 2150 102 1600 102 
C 1050 102 768 787 768 2118 
C 768 3475 1056 4185 1606 4185 
z
" transform="scale(0.015625)"/>
       </defs>
       <use xlink:href="#NimbusRomNo9L-Regu-30" transform="scale(0.996264)"/>
      </g>
     </g>
    </g>
    <g id="xtick_2">
     <g id="line2d_2">
      <g>
       <use xlink:href="#mdb9f0e0799" x="251.33358" y="267.073849" style="stroke: #000000; stroke-width: 0.8"/>
      </g>
     </g>
     <g id="text_2">
      <!-- $\mathdefault{50}$ -->
      <g transform="translate(237.385884 292.98666) scale(0.28 -0.28)">
       <defs>
        <path id="NimbusRomNo9L-Regu-35" d="M 1158 3718 
L 2413 3718 
C 2515 3718 2541 3731 2560 3775 
L 2803 4345 
L 2746 4390 
C 2650 4256 2586 4224 2451 4224 
L 1114 4224 
L 416 2717 
C 410 2705 410 2698 410 2686 
C 410 2654 435 2635 486 2635 
C 691 2635 947 2591 1210 2508 
C 1946 2274 2285 1882 2285 1255 
C 2285 647 1894 172 1395 172 
C 1267 172 1158 217 966 356 
C 762 502 614 565 480 565 
C 294 565 205 489 205 331 
C 205 89 506 -64 986 -64 
C 1523 -64 1984 108 2304 432 
C 2598 717 2733 1078 2733 1559 
C 2733 2015 2611 2306 2291 2622 
C 2010 2901 1645 3047 890 3180 
L 1158 3718 
z
" transform="scale(0.015625)"/>
       </defs>
       <use xlink:href="#NimbusRomNo9L-Regu-35" transform="scale(0.996264)"/>
       <use xlink:href="#NimbusRomNo9L-Regu-30" transform="translate(49.8132 0) scale(0.996264)"/>
      </g>
     </g>
    </g>
    <g id="xtick_3">
     <g id="line2d_3">
      <g>
       <use xlink:href="#mdb9f0e0799" x="382.899996" y="267.073849" style="stroke: #000000; stroke-width: 0.8"/>
      </g>
     </g>
     <g id="text_3">
      <!-- $\mathdefault{100}$ -->
      <g transform="translate(361.978452 292.98666) scale(0.28 -0.28)">
       <defs>
        <path id="NimbusRomNo9L-Regu-31" d="M 1862 4352 
L 710 3776 
L 710 3686 
C 787 3718 858 3743 883 3756 
C 998 3801 1107 3826 1171 3826 
C 1306 3826 1363 3731 1363 3525 
L 1363 599 
C 1363 386 1312 238 1210 179 
C 1114 121 1024 102 755 96 
L 755 0 
L 2522 0 
L 2522 96 
C 2016 102 1914 167 1914 477 
L 1914 4339 
L 1862 4352 
z
" transform="scale(0.015625)"/>
       </defs>
       <use xlink:href="#NimbusRomNo9L-Regu-31" transform="scale(0.996264)"/>
       <use xlink:href="#NimbusRomNo9L-Regu-30" transform="translate(49.8132 0) scale(0.996264)"/>
       <use xlink:href="#NimbusRomNo9L-Regu-30" transform="translate(99.626401 0) scale(0.996264)"/>
      </g>
     </g>
    </g>
    <g id="text_4">
     <!-- $tJ$ -->
     <g transform="translate(237.96194 323.289513) scale(0.3 -0.3)">
      <defs>
       <path id="CMMI12-74" d="M 1286 2566 
L 1875 2566 
C 1997 2566 2061 2566 2061 2681 
C 2061 2752 2022 2752 1894 2752 
L 1331 2752 
L 1568 3664 
C 1594 3752 1594 3764 1594 3808 
C 1594 3910 1510 3968 1427 3968 
C 1376 3968 1229 3948 1178 3746 
L 928 2752 
L 326 2752 
C 198 2752 141 2752 141 2630 
C 141 2566 186 2566 307 2566 
L 877 2566 
L 454 881 
C 403 657 384 593 384 510 
C 384 210 595 -64 954 -64 
C 1600 -64 1946 868 1946 913 
C 1946 951 1920 970 1882 970 
C 1869 970 1843 970 1830 944 
C 1824 938 1818 932 1773 830 
C 1638 510 1344 64 973 64 
C 781 64 768 223 768 364 
C 768 370 768 491 787 568 
L 1286 2566 
z
" transform="scale(0.015625)"/>
       <path id="CMMI12-4a" d="M 3418 3911 
C 3469 4102 3482 4166 3795 4166 
C 3898 4166 3962 4166 3962 4281 
C 3962 4352 3904 4352 3878 4352 
C 3770 4352 3648 4339 3533 4339 
L 3181 4339 
C 2912 4339 2630 4352 2362 4352 
C 2304 4352 2227 4352 2227 4236 
C 2227 4172 2278 4172 2278 4166 
L 2438 4166 
C 2950 4166 2950 4115 2950 4019 
C 2950 4013 2950 3968 2925 3866 
L 2189 953 
C 2022 304 1594 0 1286 0 
C 1069 0 762 99 685 428 
C 710 422 742 415 768 415 
C 979 415 1146 601 1146 787 
C 1146 889 1082 1024 890 1024 
C 774 1024 506 959 506 543 
C 506 149 838 -128 1299 -128 
C 1882 -128 2509 304 2662 908 
L 3418 3911 
z
" transform="scale(0.015625)"/>
      </defs>
      <use xlink:href="#CMMI12-74" transform="scale(0.996264)"/>
      <use xlink:href="#CMMI12-4a" transform="translate(35.22633 0) scale(0.996264)"/>
     </g>
    </g>
   </g>
   <g id="matplotlib.axis_2">
    <g id="ytick_1">
     <g id="line2d_4">
      <defs>
       <path id="m9f3fea1e5f" d="M 0 0 
L -3.5 0 
" style="stroke: #000000; stroke-width: 0.8"/>
      </defs>
      <g>
       <use xlink:href="#m9f3fea1e5f" x="106.610522" y="249.994399" style="stroke: #000000; stroke-width: 0.8"/>
      </g>
     </g>
     <g id="text_5">
      <!-- $\mathdefault{0.0}$ -->
      <g transform="translate(64.12792 259.450804) scale(0.28 -0.28)">
       <defs>
        <path id="CMMI12-3a" d="M 1178 307 
C 1178 492 1024 620 870 620 
C 685 620 557 467 557 313 
C 557 128 710 0 864 0 
C 1050 0 1178 153 1178 307 
z
" transform="scale(0.015625)"/>
       </defs>
       <use xlink:href="#NimbusRomNo9L-Regu-30" transform="scale(0.996264)"/>
       <use xlink:href="#CMMI12-3a" transform="translate(49.8132 0) scale(0.996264)"/>
       <use xlink:href="#NimbusRomNo9L-Regu-30" transform="translate(76.910378 0) scale(0.996264)"/>
      </g>
     </g>
    </g>
    <g id="ytick_2">
     <g id="line2d_5">
      <g>
       <use xlink:href="#m9f3fea1e5f" x="106.610522" y="164.597149" style="stroke: #000000; stroke-width: 0.8"/>
      </g>
     </g>
     <g id="text_6">
      <!-- $\mathdefault{0.5}$ -->
      <g transform="translate(64.12792 174.053554) scale(0.28 -0.28)">
       <use xlink:href="#NimbusRomNo9L-Regu-30" transform="scale(0.996264)"/>
       <use xlink:href="#CMMI12-3a" transform="translate(49.8132 0) scale(0.996264)"/>
       <use xlink:href="#NimbusRomNo9L-Regu-35" transform="translate(76.910378 0) scale(0.996264)"/>
      </g>
     </g>
    </g>
    <g id="ytick_3">
     <g id="line2d_6">
      <g>
       <use xlink:href="#m9f3fea1e5f" x="106.610522" y="79.199898" style="stroke: #000000; stroke-width: 0.8"/>
      </g>
     </g>
     <g id="text_7">
      <!-- $\mathdefault{1.0}$ -->
      <g transform="translate(64.12792 88.656304) scale(0.28 -0.28)">
       <use xlink:href="#NimbusRomNo9L-Regu-31" transform="scale(0.996264)"/>
       <use xlink:href="#CMMI12-3a" transform="translate(49.8132 0) scale(0.996264)"/>
       <use xlink:href="#NimbusRomNo9L-Regu-30" transform="translate(76.910378 0) scale(0.996264)"/>
      </g>
     </g>
    </g>
    <g id="text_8">
     <!-- $n(t)$ -->
     <g transform="translate(52.65594 190.225233) rotate(-90) scale(0.3 -0.3)">
      <defs>
       <path id="CMMI12-6e" d="M 1318 1870 
C 1331 1909 1491 2228 1728 2432 
C 1894 2585 2112 2687 2362 2687 
C 2618 2687 2707 2496 2707 2241 
C 2707 1877 2445 1149 2317 804 
C 2259 651 2227 568 2227 453 
C 2227 166 2426 -64 2733 -64 
C 3328 -64 3552 874 3552 913 
C 3552 945 3526 970 3488 970 
C 3430 970 3424 951 3392 842 
C 3245 319 3002 64 2752 64 
C 2688 64 2586 70 2586 274 
C 2586 434 2656 625 2694 715 
C 2822 1066 3091 1781 3091 2145 
C 3091 2528 2867 2816 2381 2816 
C 1811 2816 1510 2413 1395 2253 
C 1376 2617 1114 2816 832 2816 
C 627 2816 486 2694 378 2477 
C 262 2247 173 1864 173 1838 
C 173 1813 198 1781 243 1781 
C 294 1781 301 1787 339 1934 
C 442 2324 557 2687 813 2687 
C 960 2687 1011 2585 1011 2394 
C 1011 2253 947 2004 902 1807 
L 723 1117 
C 698 996 627 708 595 593 
C 550 427 480 127 480 95 
C 480 6 550 -64 646 -64 
C 723 -64 813 -26 864 70 
C 877 102 934 325 966 453 
L 1107 1028 
L 1318 1870 
z
" transform="scale(0.015625)"/>
       <path id="CMR10-28" d="M 2118 -1536 
C 2118 -1517 2118 -1504 2010 -1396 
C 1210 -589 1005 620 1005 1600 
C 1005 2713 1248 3827 2035 4627 
C 2118 4704 2118 4716 2118 4736 
C 2118 4780 2093 4800 2054 4800 
C 1990 4800 1414 4365 1037 3552 
C 710 2848 634 2137 634 1600 
C 634 1100 704 326 1056 -397 
C 1440 -1184 1990 -1600 2054 -1600 
C 2093 -1600 2118 -1581 2118 -1536 
z
" transform="scale(0.015625)"/>
       <path id="CMR10-29" d="M 1850 1600 
C 1850 2099 1779 2873 1427 3597 
C 1043 4384 493 4800 429 4800 
C 390 4800 365 4774 365 4736 
C 365 4716 365 4704 486 4589 
C 1114 3955 1478 2937 1478 1600 
C 1478 505 1242 -621 448 -1428 
C 365 -1504 365 -1517 365 -1536 
C 365 -1575 390 -1600 429 -1600 
C 493 -1600 1069 -1165 1446 -352 
C 1773 352 1850 1062 1850 1600 
z
" transform="scale(0.015625)"/>
      </defs>
      <use xlink:href="#CMMI12-6e" transform="scale(0.996264)"/>
      <use xlink:href="#CMR10-28" transform="translate(58.230047 0) scale(0.996264)"/>
      <use xlink:href="#CMMI12-74" transform="translate(96.883893 0) scale(0.996264)"/>
      <use xlink:href="#CMR10-29" transform="translate(132.110223 0) scale(0.996264)"/>
     </g>
    </g>
   </g>
   <g id="line2d_7">
    <path d="M 119.767164 249.994399 
L 122.664522 249.894696 
L 123.454711 249.676898 
L 124.2449 249.273614 
L 125.561881 248.295196 
L 126.878862 247.408461 
L 127.932447 247.018699 
L 130.039617 246.440541 
L 130.829805 245.965573 
L 131.619994 245.250952 
L 132.673579 243.934512 
L 135.570937 239.894131 
L 136.887919 238.657584 
L 138.468296 237.220486 
L 139.521881 235.971044 
L 140.575466 234.399783 
L 142.155843 231.55438 
L 145.053202 226.214362 
L 147.687164 221.861276 
L 149.794334 218.385928 
L 151.111315 215.711787 
L 152.428296 212.489154 
L 155.062258 205.789136 
L 156.115843 203.790035 
L 157.432824 201.854665 
L 158.486409 200.215069 
L 159.276598 198.602966 
L 160.066787 196.540125 
L 161.383768 192.266019 
L 162.964145 187.046034 
L 163.754334 185.018134 
L 164.544523 183.54499 
L 165.334711 182.510054 
L 166.651692 180.937734 
L 167.441881 179.532385 
L 168.23207 177.519241 
L 169.285655 173.940675 
L 171.392825 166.198829 
L 172.183013 164.120103 
L 172.973202 162.718333 
L 173.763391 161.816181 
L 175.080372 160.431985 
L 175.87056 159.073246 
L 176.660749 157.07374 
L 177.714334 153.525986 
L 179.821504 146.045982 
L 180.611693 144.072292 
L 181.401881 142.719565 
L 182.455466 141.538949 
L 183.509051 140.366802 
L 184.29924 139.087552 
L 185.089428 137.327019 
L 186.143013 134.344201 
L 188.250183 128.095064 
L 189.303768 125.78624 
L 190.357353 124.131831 
L 193.254712 120.206001 
L 194.571693 117.813923 
L 199.312825 108.48757 
L 200.36641 107.113844 
L 201.419995 106.180155 
L 204.053957 104.305123 
L 204.844146 103.256876 
L 205.89773 101.360577 
L 207.741504 97.774844 
L 208.531693 96.773029 
L 209.058485 96.426088 
L 209.585278 96.344198 
L 210.11207 96.489851 
L 211.165655 97.139955 
L 211.955844 97.525099 
L 212.482636 97.546816 
L 213.009429 97.306958 
L 213.536221 96.788912 
L 214.32641 95.564473 
L 216.170183 92.260532 
L 216.696976 91.719431 
L 217.223768 91.517968 
L 217.750561 91.676345 
L 218.277353 92.160592 
L 219.067542 93.302988 
L 220.384523 95.23995 
L 220.911315 95.665456 
L 221.438108 95.777174 
L 221.9649 95.566605 
L 222.491693 95.07718 
L 223.545278 93.645423 
L 224.335466 92.674979 
L 224.862259 92.310205 
L 225.389051 92.272983 
L 225.915844 92.597938 
L 226.442636 93.265362 
L 227.232825 94.742658 
L 228.813202 97.935048 
L 229.339995 98.655789 
L 229.866787 99.099025 
L 230.39358 99.26753 
L 230.920372 99.207063 
L 231.973957 98.740504 
L 232.764146 98.49908 
L 233.290938 98.569264 
L 233.817731 98.895856 
L 234.344523 99.497366 
L 235.134712 100.856794 
L 238.295467 107.13879 
L 239.085655 108.017222 
L 240.13924 108.83386 
L 241.456221 109.869075 
L 242.24641 110.772391 
L 243.036599 111.96827 
L 244.090184 113.952819 
L 249.621504 125.195358 
L 253.572448 131.9002 
L 254.626033 134.479551 
L 256.469806 139.862323 
L 257.786787 143.401199 
L 258.840372 145.547621 
L 259.893957 147.148196 
L 261.474335 149.488187 
L 262.264523 151.109425 
L 263.054712 153.189423 
L 264.371693 157.420922 
L 265.952071 162.352391 
L 266.742259 164.224839 
L 267.532448 165.632539 
L 270.16641 169.589997 
L 270.956599 171.539081 
L 272.010184 174.940097 
L 274.644146 184.046377 
L 275.434335 185.979819 
L 276.48792 187.898708 
L 278.59509 191.311544 
L 279.648674 193.712034 
L 281.229052 198.173875 
L 282.809429 202.433041 
L 283.863014 204.659588 
L 285.179995 206.882549 
L 286.760373 209.561198 
L 287.813958 211.763128 
L 289.921127 216.906487 
L 291.501505 220.499194 
L 293.081882 223.469219 
L 295.452448 227.26591 
L 301.773958 237.05685 
L 303.617731 239.397323 
L 305.724901 241.638716 
L 310.992826 246.90615 
L 312.046411 247.522269 
L 313.626788 248.139453 
L 316.26075 249.108988 
L 318.104524 249.784258 
L 319.421505 249.981873 
L 321.001882 249.945404 
L 323.899241 249.64587 
L 325.216222 249.301764 
L 326.269807 248.823493 
L 327.850184 247.801834 
L 330.484147 246.048478 
L 332.32792 244.805303 
L 333.644901 243.600625 
L 335.225279 241.75987 
L 338.386033 237.981834 
L 340.229807 235.781413 
L 341.546788 233.875359 
L 343.127166 231.166743 
L 347.604901 223.235098 
L 351.555845 216.509661 
L 352.872826 213.714755 
L 354.189807 210.411131 
L 356.823769 203.52314 
L 357.877354 201.462848 
L 359.194335 199.515579 
L 360.511317 197.566931 
L 361.301505 196.018011 
L 362.091694 194.027766 
L 363.145279 190.718231 
L 365.515845 182.873774 
L 366.306034 180.980373 
L 367.096222 179.570866 
L 368.6766 177.444228 
L 369.466788 176.182649 
L 370.256977 174.494545 
L 371.310562 171.498973 
L 374.471317 161.530108 
L 375.524902 159.361601 
L 378.158864 154.710785 
L 379.212449 152.095416 
L 382.6366 142.899747 
L 382.899996 142.367608 
L 382.899996 142.367608 
" clip-path="url(#p0f8dd76fbb)" style="fill: none; stroke: #1f77b4; stroke-width: 4; stroke-linecap: square"/>
   </g>
   <g id="line2d_8">
    <path d="M 119.767164 79.199898 
L 120.03056 79.400522 
L 120.293956 79.994492 
L 120.820749 82.255572 
L 121.610937 87.610866 
L 123.191315 99.163258 
L 123.718107 101.629917 
L 124.2449 102.969267 
L 124.508296 103.194698 
L 124.771692 103.129764 
L 125.035088 102.789107 
L 125.561881 101.377576 
L 126.352069 97.974258 
L 127.669051 92.016736 
L 128.195843 90.619607 
L 128.459239 90.261573 
L 128.722636 90.146626 
L 128.986032 90.273768 
L 129.249428 90.631973 
L 129.77622 91.953787 
L 130.566409 94.961022 
L 131.88339 100.23589 
L 132.410183 101.736747 
L 132.936975 102.698498 
L 133.463768 103.109319 
L 133.99056 103.032841 
L 134.517353 102.595099 
L 136.09773 100.891043 
L 136.624522 100.770055 
L 137.151315 101.057642 
L 137.678107 101.766304 
L 138.468296 103.495113 
L 139.785277 107.299842 
L 141.102258 111.000989 
L 142.155843 113.357769 
L 142.946032 114.688957 
L 143.736221 115.663919 
L 144.526409 116.349683 
L 145.84339 117.120988 
L 146.896975 117.739211 
L 147.687164 118.474466 
L 148.213956 119.214278 
L 149.004145 120.831243 
L 149.794334 123.096367 
L 151.111315 127.820335 
L 152.428296 132.262979 
L 153.218485 134.143836 
L 153.745277 134.98575 
L 154.27207 135.530202 
L 155.062258 135.97542 
L 155.852447 136.363177 
L 156.37924 136.836378 
L 156.906032 137.632983 
L 157.432824 138.831486 
L 158.223013 141.38801 
L 159.539994 146.862419 
L 160.593579 150.911296 
L 161.383768 153.033457 
L 161.91056 153.910062 
L 162.437353 154.392805 
L 162.964145 154.58136 
L 164.281126 154.809482 
L 164.807919 155.271683 
L 165.334711 156.165014 
L 165.861504 157.553624 
L 166.651692 160.506981 
L 169.549051 172.939281 
L 170.33924 174.754501 
L 170.866032 175.485284 
L 171.656221 176.101722 
L 172.709806 176.770354 
L 173.236598 177.361352 
L 173.763391 178.261656 
L 174.553579 180.25702 
L 175.607164 183.861496 
L 177.450938 190.337736 
L 178.241126 192.389885 
L 179.031315 193.906874 
L 180.0849 195.394466 
L 181.138485 196.863069 
L 181.928674 198.306078 
L 182.718862 200.161488 
L 184.035844 203.941456 
L 185.879617 209.231534 
L 186.933202 211.686919 
L 188.250183 214.14808 
L 190.884145 218.292726 
L 192.991315 221.904283 
L 194.835089 225.560283 
L 197.469051 230.91185 
L 198.522636 232.582517 
L 199.576221 233.891743 
L 202.47358 237.111752 
L 203.790561 239.104853 
L 205.634334 241.86098 
L 206.687919 242.97579 
L 207.741504 243.694556 
L 210.638863 245.231871 
L 211.955844 246.420908 
L 213.536221 247.843883 
L 214.589806 248.476418 
L 215.643391 248.823463 
L 217.223768 249.024955 
L 221.701504 249.295853 
L 223.018485 249.023064 
L 226.17924 248.050018 
L 227.496221 247.467487 
L 228.813202 246.614155 
L 230.39358 245.250246 
L 233.027542 242.935978 
L 235.661504 240.724601 
L 236.978485 239.295793 
L 238.295467 237.561378 
L 239.875844 235.126401 
L 244.35358 227.872347 
L 246.987542 224.08116 
L 248.041127 222.128387 
L 249.358108 219.167977 
L 251.465278 214.326388 
L 252.518863 212.456194 
L 255.679618 207.459493 
L 256.469806 205.472105 
L 257.523391 202.208481 
L 259.630561 195.503015 
L 260.42075 193.678462 
L 261.210938 192.361978 
L 262.264523 191.09923 
L 263.318108 189.755494 
L 264.108297 188.288455 
L 264.898486 186.26784 
L 265.952071 182.830661 
L 267.795844 176.53543 
L 268.586033 174.462607 
L 269.376222 172.924509 
L 270.429806 171.454371 
L 271.483391 170.039037 
L 272.27358 168.610833 
L 273.063769 166.693627 
L 274.117354 163.442683 
L 276.48792 155.768634 
L 277.541505 153.284869 
L 278.59509 151.396749 
L 280.438863 148.283068 
L 281.492448 145.994618 
L 282.809429 142.543934 
L 285.443391 135.460463 
L 286.760373 132.554418 
L 288.077354 130.212252 
L 289.657731 127.945163 
L 291.501505 125.318085 
L 292.55509 123.356327 
L 293.608675 120.85245 
L 296.506033 113.428234 
L 297.296222 112.204424 
L 298.08641 111.472347 
L 299.139995 110.966261 
L 299.930184 110.578009 
L 300.456976 110.154322 
L 300.983769 109.526524 
L 301.773958 108.159069 
L 302.827543 105.727834 
L 304.144524 102.716556 
L 304.934712 101.529427 
L 305.461505 101.121394 
L 305.988297 101.013353 
L 306.51509 101.145159 
L 308.095467 101.86919 
L 308.62226 101.803369 
L 309.149052 101.423029 
L 309.675844 100.696342 
L 310.466033 99.025497 
L 312.573203 93.862292 
L 313.099995 93.158455 
L 313.626788 92.878303 
L 314.15358 93.026833 
L 314.680373 93.550371 
L 315.470562 94.801277 
L 316.524146 96.576108 
L 317.050939 97.185582 
L 317.577731 97.46872 
L 318.104524 97.379636 
L 318.631316 96.92859 
L 319.421505 95.72399 
L 321.001882 92.891366 
L 321.528675 92.272742 
L 322.055467 91.955835 
L 322.58226 91.963588 
L 323.109052 92.27723 
L 323.899241 93.196918 
L 326.269807 96.579707 
L 327.059996 97.194639 
L 327.850184 97.483036 
L 329.167165 97.58824 
L 330.22075 97.724947 
L 331.010939 98.008404 
L 331.801128 98.482542 
L 332.854713 99.39521 
L 334.171694 100.884723 
L 338.912826 106.708806 
L 340.493203 108.43731 
L 341.546788 109.996432 
L 342.600373 112.055614 
L 345.497732 118.282754 
L 346.28792 119.287194 
L 347.078109 119.871564 
L 348.658486 120.677493 
L 349.185279 121.201409 
L 349.712071 122.003789 
L 350.238864 123.132744 
L 351.029052 125.437662 
L 352.346033 130.370477 
L 353.663015 135.106212 
L 354.453203 137.119127 
L 354.979996 138.001009 
L 355.506788 138.537046 
L 356.033581 138.803148 
L 357.613958 139.241837 
L 358.140751 139.723466 
L 358.667543 140.54682 
L 359.194335 141.750807 
L 359.984524 144.225844 
L 361.301505 149.426993 
L 362.618486 154.368425 
L 363.408675 156.594458 
L 364.198864 158.164467 
L 364.989052 159.23247 
L 366.56943 161.070995 
L 367.359619 162.422403 
L 368.149807 164.253232 
L 369.203392 167.334491 
L 371.837354 175.505298 
L 373.154336 178.657311 
L 378.158864 189.448532 
L 382.899996 201.025343 
L 382.899996 201.025343 
" clip-path="url(#p0f8dd76fbb)" style="fill: none; stroke: #ff7f0e; stroke-width: 4; stroke-linecap: square"/>
   </g>
   <g id="patch_3">
    <path d="M 106.610522 267.073849 
L 106.610522 62.120448 
" style="fill: none; stroke: #000000; stroke-width: 0.8; stroke-linejoin: miter; stroke-linecap: square"/>
   </g>
   <g id="patch_4">
    <path d="M 396.056638 267.073849 
L 396.056638 62.120448 
" style="fill: none; stroke: #000000; stroke-width: 0.8; stroke-linejoin: miter; stroke-linecap: square"/>
   </g>
   <g id="patch_5">
    <path d="M 106.610522 267.073849 
L 396.056638 267.073849 
" style="fill: none; stroke: #000000; stroke-width: 0.8; stroke-linejoin: miter; stroke-linecap: square"/>
   </g>
   <g id="patch_6">
    <path d="M 106.610522 62.120448 
L 396.056638 62.120448 
" style="fill: none; stroke: #000000; stroke-width: 0.8; stroke-linejoin: miter; stroke-linecap: square"/>
   </g>
   <g id="text_9">
    <!-- $\omega_{DF}/J=\pm 0.17,\ \Delta x=2$ -->
    <g transform="translate(88.209303 54.150336) scale(0.32 -0.32)">
     <defs>
      <path id="CMMI12-21" d="M 3802 2406 
C 3802 2592 3750 2828 3526 2828 
C 3398 2828 3251 2668 3251 2540 
C 3251 2483 3277 2444 3328 2387 
C 3424 2278 3546 2105 3546 1804 
C 3546 1574 3405 1209 3302 1011 
C 3123 659 2829 358 2496 358 
C 2093 358 1939 614 1869 972 
C 1939 1139 2086 1555 2086 1721 
C 2086 1792 2061 1849 1978 1849 
C 1933 1849 1882 1824 1850 1772 
C 1760 1632 1677 1126 1683 992 
C 1562 755 1216 358 806 358 
C 378 358 262 736 262 1100 
C 262 1766 678 2348 794 2508 
C 858 2604 902 2668 902 2681 
C 902 2726 877 2796 819 2796 
C 717 2796 685 2713 634 2636 
C 307 2131 77 1420 77 806 
C 77 409 224 -64 704 -64 
C 1235 -64 1568 390 1702 633 
C 1754 275 1946 -64 2413 -64 
C 2899 -64 3206 364 3437 883 
C 3603 1254 3802 2054 3802 2406 
z
" transform="scale(0.015625)"/>
      <path id="CMMI12-44" d="M 1005 472 
C 947 249 934 185 486 185 
C 365 185 301 185 301 70 
C 301 0 339 0 467 0 
L 2496 0 
C 3789 0 5050 1332 5050 2752 
C 5050 3669 4499 4352 3584 4352 
L 1530 4352 
C 1408 4352 1350 4352 1350 4230 
C 1350 4166 1408 4166 1504 4166 
C 1894 4166 1894 4115 1894 4045 
C 1894 4032 1894 3994 1869 3898 
L 1005 472 
z
M 2355 3917 
C 2413 4153 2438 4166 2688 4166 
L 3392 4166 
C 3994 4166 4544 3841 4544 2962 
C 4544 2644 4416 1535 3795 835 
C 3616 625 3130 185 2394 185 
L 1664 185 
C 1574 185 1562 185 1523 191 
C 1453 198 1446 211 1446 262 
C 1446 306 1459 344 1472 402 
L 2355 3917 
z
" transform="scale(0.015625)"/>
      <path id="CMMI12-46" d="M 1901 2054 
L 2515 2054 
C 3002 2054 3040 1947 3040 1764 
C 3040 1683 3027 1595 2995 1456 
C 2982 1431 2976 1399 2976 1387 
C 2976 1343 3002 1318 3046 1318 
C 3098 1318 3104 1343 3130 1444 
L 3501 2929 
C 3501 2955 3482 2993 3437 2993 
C 3379 2993 3373 2968 3347 2858 
C 3213 2375 3085 2240 2528 2240 
L 1946 2240 
L 2362 3908 
C 2419 4134 2432 4153 2694 4153 
L 3552 4153 
C 4352 4153 4467 3915 4467 3457 
C 4467 3419 4467 3277 4448 3109 
C 4442 3084 4429 3000 4429 2974 
C 4429 2922 4461 2903 4499 2903 
C 4544 2903 4570 2929 4582 3045 
L 4717 4172 
C 4717 4191 4730 4255 4730 4268 
C 4730 4339 4672 4339 4557 4339 
L 1523 4339 
C 1402 4339 1338 4339 1338 4223 
C 1338 4153 1382 4153 1491 4153 
C 1888 4153 1888 4108 1888 4037 
C 1888 4005 1882 3979 1862 3908 
L 998 468 
C 941 248 928 185 480 185 
C 358 185 294 185 294 70 
C 294 0 352 0 390 0 
C 512 0 640 12 762 12 
L 1594 12 
C 1734 12 1888 0 2029 0 
C 2086 0 2163 0 2163 115 
C 2163 185 2125 185 1984 185 
C 1478 185 1466 229 1466 324 
C 1466 355 1478 405 1491 449 
L 1901 2054 
z
" transform="scale(0.015625)"/>
      <path id="CMMI12-3d" d="M 2746 4563 
C 2746 4569 2784 4665 2784 4678 
C 2784 4755 2720 4800 2669 4800 
C 2637 4800 2579 4800 2528 4659 
L 384 -1364 
C 384 -1370 346 -1466 346 -1479 
C 346 -1556 410 -1600 461 -1600 
C 499 -1600 557 -1594 602 -1460 
L 2746 4563 
z
" transform="scale(0.015625)"/>
      <path id="CMR10-3d" d="M 4397 2111 
C 4493 2111 4614 2111 4614 2239 
C 4614 2368 4493 2368 4403 2368 
L 570 2368 
C 480 2368 358 2368 358 2239 
C 358 2111 480 2111 576 2111 
L 4397 2111 
z
M 4403 832 
C 4493 832 4614 832 4614 960 
C 4614 1088 4493 1088 4397 1088 
L 576 1088 
C 480 1088 358 1088 358 960 
C 358 832 480 832 570 832 
L 4403 832 
z
" transform="scale(0.015625)"/>
      <path id="CMSY10-6" d="M 2618 1984 
L 4397 1984 
C 4506 1984 4621 1984 4621 2112 
C 4621 2240 4506 2240 4397 2240 
L 2618 2240 
L 2618 4048 
C 2618 4153 2618 4288 2490 4288 
C 2362 4288 2362 4172 2362 4068 
L 2362 2240 
L 576 2240 
C 467 2240 352 2240 352 2112 
C 352 1984 467 1984 576 1984 
L 2362 1984 
L 2362 256 
L 576 256 
C 467 256 352 256 352 128 
C 352 0 467 0 576 0 
L 4397 0 
C 4506 0 4621 0 4621 128 
C 4621 256 4506 256 4397 256 
L 2618 256 
L 2618 1984 
z
" transform="scale(0.015625)"/>
      <path id="NimbusRomNo9L-Regu-37" d="M 2874 4224 
L 506 4224 
L 128 3283 
L 237 3232 
C 512 3667 627 3750 979 3750 
L 2368 3750 
L 1101 -64 
L 1517 -64 
L 2874 4121 
L 2874 4224 
z
" transform="scale(0.015625)"/>
      <path id="CMMI12-3b" d="M 1248 -26 
C 1248 345 1126 620 864 620 
C 659 620 557 454 557 313 
C 557 172 653 0 870 0 
C 954 0 1024 25 1082 83 
C 1094 96 1101 96 1107 96 
C 1120 96 1120 6 1120 -26 
C 1120 -233 1082 -642 710 -1051 
C 640 -1127 640 -1140 640 -1152 
C 640 -1184 672 -1216 704 -1216 
C 755 -1216 1248 -749 1248 -26 
z
" transform="scale(0.015625)"/>
      <path id="StandardSymL-44" d="M 38 0 
L 3891 0 
L 2093 4416 
L 38 0 
z
M 493 327 
L 1856 3267 
L 3066 327 
L 493 327 
z
" transform="scale(0.015625)"/>
      <path id="CMMI12-78" d="M 3034 2624 
C 2829 2585 2752 2431 2752 2310 
C 2752 2156 2874 2105 2963 2105 
C 3155 2105 3290 2271 3290 2444 
C 3290 2694 2982 2816 2714 2816 
C 2323 2816 2106 2451 2048 2329 
C 1901 2790 1504 2816 1389 2816 
C 736 2816 390 1993 390 1849 
C 390 1823 416 1790 461 1790 
C 512 1790 525 1829 538 1855 
C 755 2572 1184 2687 1370 2687 
C 1658 2687 1715 2438 1715 2284 
C 1715 2143 1677 1993 1600 1678 
L 1382 778 
C 1286 390 1101 64 762 64 
C 730 64 570 64 435 126 
C 666 166 717 358 717 435 
C 717 563 621 640 499 640 
C 346 640 179 505 179 300 
C 179 57 480 -64 755 -64 
C 1062 -64 1280 153 1414 415 
C 1517 64 1837 -64 2074 -64 
C 2726 -64 3072 751 3072 896 
C 3072 929 3046 955 3008 955 
C 2950 955 2944 922 2925 870 
C 2752 300 2381 64 2093 64 
C 1869 64 1747 204 1747 467 
C 1747 607 1773 712 1875 1146 
L 2099 2039 
C 2195 2425 2413 2687 2707 2687 
C 2720 2687 2899 2687 3034 2624 
z
" transform="scale(0.015625)"/>
      <path id="NimbusRomNo9L-Regu-32" d="M 3040 879 
L 2957 912 
C 2720 544 2637 486 2349 486 
L 819 486 
L 1894 1621 
C 2464 2221 2714 2711 2714 3214 
C 2714 3858 2195 4352 1530 4352 
C 1178 4352 845 4211 608 3955 
C 403 3736 307 3530 198 3072 
L 333 3039 
C 589 3671 819 3878 1261 3878 
C 1798 3878 2163 3510 2163 2969 
C 2163 2466 1869 1866 1331 1292 
L 192 76 
L 192 0 
L 2688 0 
L 3040 879 
z
" transform="scale(0.015625)"/>
     </defs>
     <use xlink:href="#CMMI12-21" transform="scale(0.996264)"/>
     <use xlink:href="#CMMI12-44" transform="translate(60.743753 -16.107216) scale(0.737241)"/>
     <use xlink:href="#CMMI12-46" transform="translate(122.685118 -16.107216) scale(0.737241)"/>
     <use xlink:href="#CMMI12-3d" transform="translate(179.939272 0) scale(0.996264)"/>
     <use xlink:href="#CMMI12-4a" transform="translate(228.714191 0) scale(0.996264)"/>
     <use xlink:href="#CMR10-3d" transform="translate(313.996007 0) scale(0.996264)"/>
     <use xlink:href="#CMSY10-6" transform="translate(413.543861 0) scale(0.996264)"/>
     <use xlink:href="#NimbusRomNo9L-Regu-30" transform="translate(490.952568 0) scale(0.996264)"/>
     <use xlink:href="#CMMI12-3a" transform="translate(540.765769 0) scale(0.996264)"/>
     <use xlink:href="#NimbusRomNo9L-Regu-31" transform="translate(567.862946 0) scale(0.996264)"/>
     <use xlink:href="#NimbusRomNo9L-Regu-37" transform="translate(617.676146 0) scale(0.996264)"/>
     <use xlink:href="#CMMI12-3b" transform="translate(667.489347 0) scale(0.996264)"/>
     <use xlink:href="#StandardSymL-44" transform="translate(730.562697 0) scale(0.996264)"/>
     <use xlink:href="#CMMI12-78" transform="translate(791.534097 0) scale(0.996264)"/>
     <use xlink:href="#CMR10-3d" transform="translate(869.107303 0) scale(0.996264)"/>
     <use xlink:href="#NimbusRomNo9L-Regu-32" transform="translate(968.655156 0) scale(0.996264)"/>
    </g>
   </g>
   <g id="legend_1">
    <g id="patch_7">
     <path d="M 257.041738 149.273227 
L 379.256638 149.273227 
Q 384.056638 149.273227 384.056638 144.473227 
L 384.056638 78.920448 
Q 384.056638 74.120448 379.256638 74.120448 
L 257.041738 74.120448 
Q 252.241738 74.120448 252.241738 78.920448 
L 252.241738 144.473227 
Q 252.241738 149.273227 257.041738 149.273227 
z
" style="fill: #ffffff; opacity: 0.6; stroke: #cccccc; stroke-linejoin: miter"/>
    </g>
    <g id="line2d_9">
     <path d="M 261.841738 92.120448 
L 285.841738 92.120448 
L 309.841738 92.120448 
" style="fill: none; stroke: #1f77b4; stroke-width: 4; stroke-linecap: square"/>
    </g>
    <g id="text_10">
     <!-- $n^{(20)}$ -->
     <g transform="translate(329.041738 100.520448) scale(0.24 -0.24)">
      <use xlink:href="#CMMI12-6e" transform="scale(0.996264)"/>
      <use xlink:href="#CMR10-28" transform="translate(58.230047 36.163231) scale(0.737241)"/>
      <use xlink:href="#NimbusRomNo9L-Regu-32" transform="translate(86.834101 36.163231) scale(0.737241)"/>
      <use xlink:href="#NimbusRomNo9L-Regu-30" transform="translate(123.696143 36.163231) scale(0.737241)"/>
      <use xlink:href="#CMR10-29" transform="translate(160.558185 36.163231) scale(0.737241)"/>
     </g>
    </g>
    <g id="line2d_10">
     <path d="M 261.841738 126.096838 
L 285.841738 126.096838 
L 309.841738 126.096838 
" style="fill: none; stroke: #ff7f0e; stroke-width: 4; stroke-linecap: square"/>
    </g>
    <g id="text_11">
     <!-- $n^{(11)}$ -->
     <g transform="translate(329.041738 134.496838) scale(0.24 -0.24)">
      <use xlink:href="#CMMI12-6e" transform="scale(0.996264)"/>
      <use xlink:href="#CMR10-28" transform="translate(58.230047 36.163231) scale(0.737241)"/>
      <use xlink:href="#NimbusRomNo9L-Regu-31" transform="translate(86.834101 36.163231) scale(0.737241)"/>
      <use xlink:href="#NimbusRomNo9L-Regu-31" transform="translate(123.696143 36.163231) scale(0.737241)"/>
      <use xlink:href="#CMR10-29" transform="translate(160.558185 36.163231) scale(0.737241)"/>
     </g>
    </g>
   </g>
  </g>
 </g>
 <defs>
  <clipPath id="p0f8dd76fbb">
   <rect x="106.610522" y="62.120448" width="289.446115" height="204.9534"/>
  </clipPath>
 </defs>
</svg>
