<?xml version="1.0" encoding="utf-8" standalone="no"?>
<!DOCTYPE svg PUBLIC "-//W3C//DTD SVG 1.1//EN"
  "http://www.w3.org/Graphics/SVG/1.1/DTD/svg11.dtd">
<svg xmlns:xlink="http://www.w3.org/1999/xlink" width="432pt" height="360pt" viewBox="0 0 432 360" xmlns="http://www.w3.org/2000/svg" version="1.1">
 <metadata>
  <rdf:RDF xmlns:dc="http://purl.org/dc/elements/1.1/" xmlns:cc="http://creativecommons.org/ns#" xmlns:rdf="http://www.w3.org/1999/02/22-rdf-syntax-ns#">
   <cc:Work>
    <dc:type rdf:resource="http://purl.org/dc/dcmitype/StillImage"/>
    <dc:date>2026-03-12T11:35:56.322840</dc:date>
    <dc:format>image/svg+xml</dc:format>
    <dc:creator>
     <cc:Agent>
      <dc:title>Matplotlib v3.7.2, https://matplotlib.org/</dc:title>
     </cc:Agent>
    </dc:creator>
   </cc:Work>
  </rdf:RDF>
 </metadata>
 <defs>
  <style type="text/css">*{stroke-linejoin: round; stroke-linecap: butt}</style>
 </defs>
 <g id="figure_1">
  <g id="patch_1">
   <path d="M 0 360 
L 432 360 
L 432 0 
L 0 0 
z
" style="fill: #ffffff"/>
  </g>
  <g id="axes_1">
   <g id="patch_2">
    <path d="M 106.610522 267.073849 
L 396.056638 267.073849 
L 396.056638 62.120448 
L 106.610522 62.120448 
z
" style="fill: #ffffff"/>
   </g>
   <g id="matplotlib.axis_1">
    <g id="xtick_1">
     <g id="line2d_1">
      <defs>
       <path id="m3d1f4c4b22" d="M 0 0 
L 0 3.5 
" style="stroke: #000000; stroke-width: 0.8"/>
      </defs>
      <g>
       <use xlink:href="#m3d1f4c4b22" x="119.767164" y="267.073849" style="stroke: #000000; stroke-width: 0.8"/>
      </g>
     </g>
     <g id="text_1">
      <!-- $\mathdefault{0}$ -->
      <g transform="translate(112.793316 292.98666) scale(0.28 -0.28)">
       <defs>
        <path id="NimbusRomNo9L-Regu-30" d="M 1626 4352 
C 1274 4352 1005 4243 768 4019 
C 397 3661 154 2924 154 2176 
C 154 1478 365 729 666 371 
C 902 89 1229 -64 1600 -64 
C 1926 -64 2202 44 2432 268 
C 2803 620 3046 1363 3046 2137 
C 3046 3449 2464 4352 1626 4352 
z
M 1606 4185 
C 2144 4185 2432 3462 2432 2124 
C 2432 787 2150 102 1600 102 
C 1050 102 768 787 768 2118 
C 768 3475 1056 4185 1606 4185 
z
" transform="scale(0.015625)"/>
       </defs>
       <use xlink:href="#NimbusRomNo9L-Regu-30" transform="scale(0.996264)"/>
      </g>
     </g>
    </g>
    <g id="xtick_2">
     <g id="line2d_2">
      <g>
       <use xlink:href="#m3d1f4c4b22" x="251.33358" y="267.073849" style="stroke: #000000; stroke-width: 0.8"/>
      </g>
     </g>
     <g id="text_2">
      <!-- $\mathdefault{50}$ -->
      <g transform="translate(237.385884 292.98666) scale(0.28 -0.28)">
       <defs>
        <path id="NimbusRomNo9L-Regu-35" d="M 1158 3718 
L 2413 3718 
C 2515 3718 2541 3731 2560 3775 
L 2803 4345 
L 2746 4390 
C 2650 4256 2586 4224 2451 4224 
L 1114 4224 
L 416 2717 
C 410 2705 410 2698 410 2686 
C 410 2654 435 2635 486 2635 
C 691 2635 947 2591 1210 2508 
C 1946 2274 2285 1882 2285 1255 
C 2285 647 1894 172 1395 172 
C 1267 172 1158 217 966 356 
C 762 502 614 565 480 565 
C 294 565 205 489 205 331 
C 205 89 506 -64 986 -64 
C 1523 -64 1984 108 2304 432 
C 2598 717 2733 1078 2733 1559 
C 2733 2015 2611 2306 2291 2622 
C 2010 2901 1645 3047 890 3180 
L 1158 3718 
z
" transform="scale(0.015625)"/>
       </defs>
       <use xlink:href="#NimbusRomNo9L-Regu-35" transform="scale(0.996264)"/>
       <use xlink:href="#NimbusRomNo9L-Regu-30" transform="translate(49.8132 0) scale(0.996264)"/>
      </g>
     </g>
    </g>
    <g id="xtick_3">
     <g id="line2d_3">
      <g>
       <use xlink:href="#m3d1f4c4b22" x="382.899996" y="267.073849" style="stroke: #000000; stroke-width: 0.8"/>
      </g>
     </g>
     <g id="text_3">
      <!-- $\mathdefault{100}$ -->
      <g transform="translate(361.978452 292.98666) scale(0.28 -0.28)">
       <defs>
        <path id="NimbusRomNo9L-Regu-31" d="M 1862 4352 
L 710 3776 
L 710 3686 
C 787 3718 858 3743 883 3756 
C 998 3801 1107 3826 1171 3826 
C 1306 3826 1363 3731 1363 3525 
L 1363 599 
C 1363 386 1312 238 1210 179 
C 1114 121 1024 102 755 96 
L 755 0 
L 2522 0 
L 2522 96 
C 2016 102 1914 167 1914 477 
L 1914 4339 
L 1862 4352 
z
" transform="scale(0.015625)"/>
       </defs>
       <use xlink:href="#NimbusRomNo9L-Regu-31" transform="scale(0.996264)"/>
       <use xlink:href="#NimbusRomNo9L-Regu-30" transform="translate(49.8132 0) scale(0.996264)"/>
       <use xlink:href="#NimbusRomNo9L-Regu-30" transform="translate(99.626401 0) scale(0.996264)"/>
      </g>
     </g>
    </g>
    <g id="text_4">
     <!-- $tJ$ -->
     <g transform="translate(237.96194 323.289513) scale(0.3 -0.3)">
      <defs>
       <path id="CMMI12-74" d="M 1286 2566 
L 1875 2566 
C 1997 2566 2061 2566 2061 2681 
C 2061 2752 2022 2752 1894 2752 
L 1331 2752 
L 1568 3664 
C 1594 3752 1594 3764 1594 3808 
C 1594 3910 1510 3968 1427 3968 
C 1376 3968 1229 3948 1178 3746 
L 928 2752 
L 326 2752 
C 198 2752 141 2752 141 2630 
C 141 2566 186 2566 307 2566 
L 877 2566 
L 454 881 
C 403 657 384 593 384 510 
C 384 210 595 -64 954 -64 
C 1600 -64 1946 868 1946 913 
C 1946 951 1920 970 1882 970 
C 1869 970 1843 970 1830 944 
C 1824 938 1818 932 1773 830 
C 1638 510 1344 64 973 64 
C 781 64 768 223 768 364 
C 768 370 768 491 787 568 
L 1286 2566 
z
" transform="scale(0.015625)"/>
       <path id="CMMI12-4a" d="M 3418 3911 
C 3469 4102 3482 4166 3795 4166 
C 3898 4166 3962 4166 3962 4281 
C 3962 4352 3904 4352 3878 4352 
C 3770 4352 3648 4339 3533 4339 
L 3181 4339 
C 2912 4339 2630 4352 2362 4352 
C 2304 4352 2227 4352 2227 4236 
C 2227 4172 2278 4172 2278 4166 
L 2438 4166 
C 2950 4166 2950 4115 2950 4019 
C 2950 4013 2950 3968 2925 3866 
L 2189 953 
C 2022 304 1594 0 1286 0 
C 1069 0 762 99 685 428 
C 710 422 742 415 768 415 
C 979 415 1146 601 1146 787 
C 1146 889 1082 1024 890 1024 
C 774 1024 506 959 506 543 
C 506 149 838 -128 1299 -128 
C 1882 -128 2509 304 2662 908 
L 3418 3911 
z
" transform="scale(0.015625)"/>
      </defs>
      <use xlink:href="#CMMI12-74" transform="scale(0.996264)"/>
      <use xlink:href="#CMMI12-4a" transform="translate(35.22633 0) scale(0.996264)"/>
     </g>
    </g>
   </g>
   <g id="matplotlib.axis_2">
    <g id="ytick_1">
     <g id="line2d_4">
      <defs>
       <path id="m874f5da689" d="M 0 0 
L -3.5 0 
" style="stroke: #000000; stroke-width: 0.8"/>
      </defs>
      <g>
       <use xlink:href="#m874f5da689" x="106.610522" y="249.994399" style="stroke: #000000; stroke-width: 0.8"/>
      </g>
     </g>
     <g id="text_5">
      <!-- $\mathdefault{0.0}$ -->
      <g transform="translate(64.12792 259.450804) scale(0.28 -0.28)">
       <defs>
        <path id="CMMI12-3a" d="M 1178 307 
C 1178 492 1024 620 870 620 
C 685 620 557 467 557 313 
C 557 128 710 0 864 0 
C 1050 0 1178 153 1178 307 
z
" transform="scale(0.015625)"/>
       </defs>
       <use xlink:href="#NimbusRomNo9L-Regu-30" transform="scale(0.996264)"/>
       <use xlink:href="#CMMI12-3a" transform="translate(49.8132 0) scale(0.996264)"/>
       <use xlink:href="#NimbusRomNo9L-Regu-30" transform="translate(76.910378 0) scale(0.996264)"/>
      </g>
     </g>
    </g>
    <g id="ytick_2">
     <g id="line2d_5">
      <g>
       <use xlink:href="#m874f5da689" x="106.610522" y="164.597149" style="stroke: #000000; stroke-width: 0.8"/>
      </g>
     </g>
     <g id="text_6">
      <!-- $\mathdefault{0.5}$ -->
      <g transform="translate(64.12792 174.053554) scale(0.28 -0.28)">
       <use xlink:href="#NimbusRomNo9L-Regu-30" transform="scale(0.996264)"/>
       <use xlink:href="#CMMI12-3a" transform="translate(49.8132 0) scale(0.996264)"/>
       <use xlink:href="#NimbusRomNo9L-Regu-35" transform="translate(76.910378 0) scale(0.996264)"/>
      </g>
     </g>
    </g>
    <g id="ytick_3">
     <g id="line2d_6">
      <g>
       <use xlink:href="#m874f5da689" x="106.610522" y="79.199898" style="stroke: #000000; stroke-width: 0.8"/>
      </g>
     </g>
     <g id="text_7">
      <!-- $\mathdefault{1.0}$ -->
      <g transform="translate(64.12792 88.656304) scale(0.28 -0.28)">
       <use xlink:href="#NimbusRomNo9L-Regu-31" transform="scale(0.996264)"/>
       <use xlink:href="#CMMI12-3a" transform="translate(49.8132 0) scale(0.996264)"/>
       <use xlink:href="#NimbusRomNo9L-Regu-30" transform="translate(76.910378 0) scale(0.996264)"/>
      </g>
     </g>
    </g>
    <g id="text_8">
     <!-- $n(t)$ -->
     <g transform="translate(52.65594 190.225233) rotate(-90) scale(0.3 -0.3)">
      <defs>
       <path id="CMMI12-6e" d="M 1318 1870 
C 1331 1909 1491 2228 1728 2432 
C 1894 2585 2112 2687 2362 2687 
C 2618 2687 2707 2496 2707 2241 
C 2707 1877 2445 1149 2317 804 
C 2259 651 2227 568 2227 453 
C 2227 166 2426 -64 2733 -64 
C 3328 -64 3552 874 3552 913 
C 3552 945 3526 970 3488 970 
C 3430 970 3424 951 3392 842 
C 3245 319 3002 64 2752 64 
C 2688 64 2586 70 2586 274 
C 2586 434 2656 625 2694 715 
C 2822 1066 3091 1781 3091 2145 
C 3091 2528 2867 2816 2381 2816 
C 1811 2816 1510 2413 1395 2253 
C 1376 2617 1114 2816 832 2816 
C 627 2816 486 2694 378 2477 
C 262 2247 173 1864 173 1838 
C 173 1813 198 1781 243 1781 
C 294 1781 301 1787 339 1934 
C 442 2324 557 2687 813 2687 
C 960 2687 1011 2585 1011 2394 
C 1011 2253 947 2004 902 1807 
L 723 1117 
C 698 996 627 708 595 593 
C 550 427 480 127 480 95 
C 480 6 550 -64 646 -64 
C 723 -64 813 -26 864 70 
C 877 102 934 325 966 453 
L 1107 1028 
L 1318 1870 
z
" transform="scale(0.015625)"/>
       <path id="CMR10-28" d="M 2118 -1536 
C 2118 -1517 2118 -1504 2010 -1396 
C 1210 -589 1005 620 1005 1600 
C 1005 2713 1248 3827 2035 4627 
C 2118 4704 2118 4716 2118 4736 
C 2118 4780 2093 4800 2054 4800 
C 1990 4800 1414 4365 1037 3552 
C 710 2848 634 2137 634 1600 
C 634 1100 704 326 1056 -397 
C 1440 -1184 1990 -1600 2054 -1600 
C 2093 -1600 2118 -1581 2118 -1536 
z
" transform="scale(0.015625)"/>
       <path id="CMR10-29" d="M 1850 1600 
C 1850 2099 1779 2873 1427 3597 
C 1043 4384 493 4800 429 4800 
C 390 4800 365 4774 365 4736 
C 365 4716 365 4704 486 4589 
C 1114 3955 1478 2937 1478 1600 
C 1478 505 1242 -621 448 -1428 
C 365 -1504 365 -1517 365 -1536 
C 365 -1575 390 -1600 429 -1600 
C 493 -1600 1069 -1165 1446 -352 
C 1773 352 1850 1062 1850 1600 
z
" transform="scale(0.015625)"/>
      </defs>
      <use xlink:href="#CMMI12-6e" transform="scale(0.996264)"/>
      <use xlink:href="#CMR10-28" transform="translate(58.230047 0) scale(0.996264)"/>
      <use xlink:href="#CMMI12-74" transform="translate(96.883893 0) scale(0.996264)"/>
      <use xlink:href="#CMR10-29" transform="translate(132.110223 0) scale(0.996264)"/>
     </g>
    </g>
   </g>
   <g id="line2d_7">
    <path d="M 119.767164 249.994399 
L 122.927919 249.912072 
L 124.2449 249.615635 
L 126.088673 248.874817 
L 127.932447 247.977349 
L 129.512824 246.930563 
L 130.829805 246.114705 
L 131.88339 245.736208 
L 134.517353 245.045221 
L 135.570937 244.341229 
L 136.887919 243.077079 
L 139.258485 240.395413 
L 140.838862 238.342904 
L 142.946032 235.514309 
L 143.736221 234.766832 
L 144.789805 234.116907 
L 146.370183 233.258206 
L 147.160372 232.558601 
L 148.213956 231.229152 
L 149.794334 228.694246 
L 152.428296 224.052102 
L 155.589051 218.180639 
L 156.37924 217.25863 
L 157.432824 216.4186 
L 158.749806 215.370535 
L 159.539994 214.425587 
L 160.593579 212.695339 
L 162.173957 209.494005 
L 164.807919 203.719246 
L 167.441881 197.637023 
L 168.23207 196.323375 
L 169.022258 195.390453 
L 171.656221 192.85106 
L 172.446409 191.554292 
L 173.499994 189.384946 
L 176.133957 183.211397 
L 178.241126 177.776775 
L 179.558108 174.554669 
L 180.348296 173.07078 
L 181.138485 172.027791 
L 182.19207 171.135848 
L 183.245655 170.293502 
L 184.035844 169.367138 
L 184.826032 168.081873 
L 185.879617 165.90958 
L 188.250183 160.326012 
L 190.357353 154.885818 
L 191.674334 151.60356 
L 192.464523 150.075644 
L 193.254712 149.028106 
L 194.0449 148.405991 
L 195.888674 147.318486 
L 196.678862 146.445296 
L 197.469051 145.207971 
L 198.786032 142.594461 
L 201.419995 136.711457 
L 204.317353 130.029896 
L 205.107542 128.90782 
L 205.634334 128.449416 
L 206.424523 128.124775 
L 208.268297 127.755184 
L 209.058485 127.182455 
L 209.848674 126.240913 
L 210.902259 124.575207 
L 213.272825 120.244004 
L 216.696976 113.636489 
L 217.223768 113.071698 
L 217.750561 112.751949 
L 218.277353 112.663604 
L 219.067542 112.847469 
L 220.384523 113.302765 
L 220.911315 113.308679 
L 221.438108 113.148957 
L 222.228297 112.605781 
L 223.281882 111.480762 
L 225.389051 108.744288 
L 226.969429 106.330725 
L 228.28641 104.326853 
L 229.076599 103.50677 
L 229.603391 103.240312 
L 230.130183 103.22585 
L 230.656976 103.445945 
L 231.447165 104.090636 
L 232.764146 105.297437 
L 233.554334 105.693205 
L 234.081127 105.75233 
L 234.871316 105.571075 
L 235.924901 105.016141 
L 237.505278 103.924441 
L 238.822259 102.751877 
L 240.666033 100.984375 
L 241.192825 100.714657 
L 241.719618 100.662798 
L 242.24641 100.86135 
L 242.773202 101.307676 
L 243.563391 102.345961 
L 245.670561 105.408295 
L 246.46075 106.073746 
L 247.250938 106.431979 
L 248.304523 106.618277 
L 249.621504 106.630518 
L 250.675089 106.440015 
L 251.99207 105.91729 
L 253.045655 105.597596 
L 253.572448 105.638891 
L 254.09924 105.889728 
L 254.626033 106.377575 
L 255.416221 107.529533 
L 256.733203 110.097367 
L 257.786787 112.048526 
L 258.576976 113.176295 
L 259.367165 113.99908 
L 260.42075 114.772518 
L 261.737731 115.479387 
L 262.791316 115.855679 
L 264.108297 116.05523 
L 265.161882 116.264271 
L 265.688674 116.53759 
L 266.215467 116.999248 
L 266.742259 117.683664 
L 267.532448 119.129161 
L 268.586033 121.61999 
L 270.429806 125.987325 
L 271.483391 127.867773 
L 272.800373 129.665423 
L 274.38075 131.403953 
L 275.697731 132.496668 
L 278.068297 134.195559 
L 278.858486 135.225414 
L 279.648674 136.677024 
L 280.702259 139.156954 
L 282.809429 144.350437 
L 283.863014 146.405397 
L 285.179995 148.462824 
L 286.496976 150.145385 
L 287.813958 151.446328 
L 290.44792 153.699512 
L 291.238108 154.914042 
L 292.028297 156.580886 
L 293.081882 159.381756 
L 295.452448 165.939423 
L 296.769429 168.813798 
L 298.613203 172.202077 
L 300.456976 175.152172 
L 303.090939 179.069345 
L 304.144524 181.163252 
L 305.461505 184.348095 
L 307.568675 189.519025 
L 308.885656 192.161895 
L 310.202637 194.357264 
L 311.519618 196.177271 
L 312.836599 197.607514 
L 314.943769 199.75701 
L 315.733958 200.932758 
L 316.787543 203.021275 
L 318.36792 206.890017 
L 319.948297 210.618579 
L 321.528675 213.692758 
L 323.372448 216.779524 
L 324.952826 219.018619 
L 326.269807 220.482391 
L 328.11358 222.429855 
L 329.167165 223.864633 
L 330.747543 226.477079 
L 332.591316 229.455397 
L 333.908298 231.19914 
L 335.752071 233.220487 
L 338.122637 235.431026 
L 339.966411 237.19131 
L 341.546788 239.012129 
L 344.18075 242.131054 
L 345.761128 243.609209 
L 347.341505 244.753905 
L 348.658486 245.463746 
L 350.238864 246.064381 
L 352.60943 246.951462 
L 354.7166 248.1137 
L 356.296977 248.897905 
L 357.877354 249.440026 
L 359.721128 249.822852 
L 361.564901 249.966759 
L 364.989052 249.947665 
L 366.832826 249.769764 
L 368.413203 249.397278 
L 370.783769 248.569383 
L 373.154336 247.550571 
L 378.158864 245.043107 
L 379.475845 244.058677 
L 381.319619 242.340866 
L 382.899996 240.838773 
L 382.899996 240.838773 
" clip-path="url(#pcbf978bf42)" style="fill: none; stroke: #1f77b4; stroke-width: 4; stroke-linecap: square"/>
   </g>
   <g id="line2d_8">
    <path d="M 119.767164 79.199898 
L 120.03056 79.34484 
L 120.293956 79.773435 
L 120.820749 81.397911 
L 121.610937 85.203947 
L 123.191315 93.438768 
L 123.981503 96.312267 
L 124.771692 98.252199 
L 125.825277 100.0229 
L 127.142258 101.732054 
L 127.669051 102.168757 
L 128.195843 102.307293 
L 128.722636 102.035868 
L 129.249428 101.285261 
L 129.77622 100.060195 
L 130.566409 97.567677 
L 131.619994 94.141944 
L 132.146787 92.954421 
L 132.673579 92.38432 
L 132.936975 92.360507 
L 133.200371 92.512056 
L 133.727164 93.303057 
L 134.253956 94.626603 
L 135.307541 98.119415 
L 136.624522 102.414383 
L 137.678107 105.105615 
L 138.731692 107.152021 
L 139.521881 108.293819 
L 140.31207 109.036085 
L 140.838862 109.260918 
L 141.365655 109.244322 
L 141.892447 108.987149 
L 142.682636 108.230548 
L 144.263013 106.487712 
L 144.789805 106.261647 
L 145.316598 106.374315 
L 145.84339 106.867309 
L 146.370183 107.736058 
L 147.160372 109.638363 
L 148.477353 113.755598 
L 150.321126 119.484258 
L 151.374711 121.936486 
L 152.1649 123.234061 
L 152.955089 124.083874 
L 153.745277 124.546298 
L 154.535466 124.703842 
L 155.852447 124.62109 
L 156.642636 124.660593 
L 157.169428 124.860175 
L 157.696221 125.269148 
L 158.223013 125.930476 
L 159.013202 127.430274 
L 159.80339 129.48786 
L 161.120372 133.691297 
L 162.964145 139.475232 
L 164.01773 142.024136 
L 165.071315 143.910472 
L 165.861504 144.937497 
L 166.651692 145.671799 
L 167.705277 146.289349 
L 169.022258 146.924237 
L 169.812447 147.608328 
L 170.602636 148.762473 
L 171.392825 150.45691 
L 172.446409 153.402291 
L 175.607164 162.843271 
L 176.924145 165.970853 
L 177.97773 168.009962 
L 178.767919 169.1846 
L 179.558108 170.022817 
L 180.611693 170.768555 
L 181.665277 171.566134 
L 182.455466 172.559511 
L 183.245655 174.044918 
L 184.29924 176.685594 
L 187.986787 186.638704 
L 189.830561 190.938672 
L 190.884145 192.853431 
L 191.674334 193.867831 
L 192.727919 194.768068 
L 193.781504 195.60862 
L 194.571693 196.543449 
L 195.361881 197.876599 
L 196.415466 200.16618 
L 200.36641 209.239434 
L 202.210183 213.135752 
L 203.263768 214.826387 
L 204.053957 215.724753 
L 205.370938 216.793425 
L 206.424523 217.744829 
L 207.214712 218.731716 
L 208.268297 220.410788 
L 214.853202 231.73423 
L 215.906787 232.877876 
L 217.223768 233.872263 
L 218.804146 235.032631 
L 220.121127 236.322618 
L 223.018485 239.644077 
L 226.17924 243.230566 
L 227.496221 244.307267 
L 228.813202 245.04664 
L 235.398108 248.186582 
L 237.505278 249.141969 
L 239.085655 249.598314 
L 240.666033 249.818481 
L 243.036599 249.905217 
L 245.670561 249.818748 
L 247.514335 249.550476 
L 249.358108 249.076769 
L 251.465278 248.286367 
L 257.786787 245.480893 
L 259.367165 244.316602 
L 261.737731 242.233479 
L 264.108297 239.854599 
L 265.952071 238.066743 
L 267.532448 236.877261 
L 269.112825 235.63416 
L 270.16641 234.528771 
L 272.010184 232.166157 
L 274.644146 228.491613 
L 278.59509 222.520646 
L 281.755844 218.96576 
L 283.072825 216.870055 
L 286.23358 211.325683 
L 288.077354 207.48215 
L 289.394335 204.845246 
L 290.44792 203.219568 
L 291.764901 201.710018 
L 293.081882 200.158448 
L 294.398863 198.15407 
L 298.876599 190.5282 
L 302.564146 183.102658 
L 304.144524 180.932755 
L 305.724901 178.656747 
L 307.832071 175.091541 
L 309.412448 172.117096 
L 310.729429 169.160189 
L 313.363392 162.981575 
L 314.416977 161.236204 
L 315.733958 159.619583 
L 317.841128 157.124309 
L 322.58226 151.048174 
L 323.899241 148.612225 
L 326.796599 142.961233 
L 328.11358 141.043128 
L 329.430562 139.560153 
L 331.537731 137.29036 
L 332.854713 135.441157 
L 335.488675 131.523056 
L 336.805656 130.093227 
L 340.756599 126.360951 
L 341.546788 125.937256 
L 342.600373 125.636707 
L 343.917354 125.236306 
L 344.707543 124.721162 
L 345.497732 123.931176 
L 346.814713 122.191466 
L 348.921883 119.347867 
L 350.238864 117.91702 
L 351.292449 117.101132 
L 352.082637 116.749713 
L 352.872826 116.627081 
L 353.926411 116.706911 
L 355.770184 116.857967 
L 358.140751 116.889954 
L 359.984524 117.112535 
L 360.774713 116.88013 
L 361.564901 116.320441 
L 363.672071 114.502004 
L 364.198864 114.386719 
L 364.725656 114.484125 
L 365.515845 114.937343 
L 366.832826 115.810138 
L 367.623015 115.991283 
L 368.413203 115.865746 
L 369.730185 115.584908 
L 370.256977 115.685731 
L 370.783769 115.973961 
L 371.573958 116.70386 
L 373.154336 118.287965 
L 373.944524 118.657627 
L 374.734713 118.711214 
L 375.788298 118.69001 
L 376.31509 118.826446 
L 376.841883 119.132347 
L 377.632071 119.902144 
L 379.739241 122.325496 
L 380.52943 122.79631 
L 381.583015 123.053172 
L 382.6366 123.285814 
L 382.899996 123.388016 
L 382.899996 123.388016 
" clip-path="url(#pcbf978bf42)" style="fill: none; stroke: #ff7f0e; stroke-width: 4; stroke-linecap: square"/>
   </g>
   <g id="patch_3">
    <path d="M 106.610522 267.073849 
L 106.610522 62.120448 
" style="fill: none; stroke: #000000; stroke-width: 0.8; stroke-linejoin: miter; stroke-linecap: square"/>
   </g>
   <g id="patch_4">
    <path d="M 396.056638 267.073849 
L 396.056638 62.120448 
" style="fill: none; stroke: #000000; stroke-width: 0.8; stroke-linejoin: miter; stroke-linecap: square"/>
   </g>
   <g id="patch_5">
    <path d="M 106.610522 267.073849 
L 396.056638 267.073849 
" style="fill: none; stroke: #000000; stroke-width: 0.8; stroke-linejoin: miter; stroke-linecap: square"/>
   </g>
   <g id="patch_6">
    <path d="M 106.610522 62.120448 
L 396.056638 62.120448 
" style="fill: none; stroke: #000000; stroke-width: 0.8; stroke-linejoin: miter; stroke-linecap: square"/>
   </g>
   <g id="text_9">
    <!-- $\omega_{DF}/J=\pm 0.71,\ \Delta x=2$ -->
    <g transform="translate(88.209303 54.150336) scale(0.32 -0.32)">
     <defs>
      <path id="CMMI12-21" d="M 3802 2406 
C 3802 2592 3750 2828 3526 2828 
C 3398 2828 3251 2668 3251 2540 
C 3251 2483 3277 2444 3328 2387 
C 3424 2278 3546 2105 3546 1804 
C 3546 1574 3405 1209 3302 1011 
C 3123 659 2829 358 2496 358 
C 2093 358 1939 614 1869 972 
C 1939 1139 2086 1555 2086 1721 
C 2086 1792 2061 1849 1978 1849 
C 1933 1849 1882 1824 1850 1772 
C 1760 1632 1677 1126 1683 992 
C 1562 755 1216 358 806 358 
C 378 358 262 736 262 1100 
C 262 1766 678 2348 794 2508 
C 858 2604 902 2668 902 2681 
C 902 2726 877 2796 819 2796 
C 717 2796 685 2713 634 2636 
C 307 2131 77 1420 77 806 
C 77 409 224 -64 704 -64 
C 1235 -64 1568 390 1702 633 
C 1754 275 1946 -64 2413 -64 
C 2899 -64 3206 364 3437 883 
C 3603 1254 3802 2054 3802 2406 
z
" transform="scale(0.015625)"/>
      <path id="CMMI12-44" d="M 1005 472 
C 947 249 934 185 486 185 
C 365 185 301 185 301 70 
C 301 0 339 0 467 0 
L 2496 0 
C 3789 0 5050 1332 5050 2752 
C 5050 3669 4499 4352 3584 4352 
L 1530 4352 
C 1408 4352 1350 4352 1350 4230 
C 1350 4166 1408 4166 1504 4166 
C 1894 4166 1894 4115 1894 4045 
C 1894 4032 1894 3994 1869 3898 
L 1005 472 
z
M 2355 3917 
C 2413 4153 2438 4166 2688 4166 
L 3392 4166 
C 3994 4166 4544 3841 4544 2962 
C 4544 2644 4416 1535 3795 835 
C 3616 625 3130 185 2394 185 
L 1664 185 
C 1574 185 1562 185 1523 191 
C 1453 198 1446 211 1446 262 
C 1446 306 1459 344 1472 402 
L 2355 3917 
z
" transform="scale(0.015625)"/>
      <path id="CMMI12-46" d="M 1901 2054 
L 2515 2054 
C 3002 2054 3040 1947 3040 1764 
C 3040 1683 3027 1595 2995 1456 
C 2982 1431 2976 1399 2976 1387 
C 2976 1343 3002 1318 3046 1318 
C 3098 1318 3104 1343 3130 1444 
L 3501 2929 
C 3501 2955 3482 2993 3437 2993 
C 3379 2993 3373 2968 3347 2858 
C 3213 2375 3085 2240 2528 2240 
L 1946 2240 
L 2362 3908 
C 2419 4134 2432 4153 2694 4153 
L 3552 4153 
C 4352 4153 4467 3915 4467 3457 
C 4467 3419 4467 3277 4448 3109 
C 4442 3084 4429 3000 4429 2974 
C 4429 2922 4461 2903 4499 2903 
C 4544 2903 4570 2929 4582 3045 
L 4717 4172 
C 4717 4191 4730 4255 4730 4268 
C 4730 4339 4672 4339 4557 4339 
L 1523 4339 
C 1402 4339 1338 4339 1338 4223 
C 1338 4153 1382 4153 1491 4153 
C 1888 4153 1888 4108 1888 4037 
C 1888 4005 1882 3979 1862 3908 
L 998 468 
C 941 248 928 185 480 185 
C 358 185 294 185 294 70 
C 294 0 352 0 390 0 
C 512 0 640 12 762 12 
L 1594 12 
C 1734 12 1888 0 2029 0 
C 2086 0 2163 0 2163 115 
C 2163 185 2125 185 1984 185 
C 1478 185 1466 229 1466 324 
C 1466 355 1478 405 1491 449 
L 1901 2054 
z
" transform="scale(0.015625)"/>
      <path id="CMMI12-3d" d="M 2746 4563 
C 2746 4569 2784 4665 2784 4678 
C 2784 4755 2720 4800 2669 4800 
C 2637 4800 2579 4800 2528 4659 
L 384 -1364 
C 384 -1370 346 -1466 346 -1479 
C 346 -1556 410 -1600 461 -1600 
C 499 -1600 557 -1594 602 -1460 
L 2746 4563 
z
" transform="scale(0.015625)"/>
      <path id="CMR10-3d" d="M 4397 2111 
C 4493 2111 4614 2111 4614 2239 
C 4614 2368 4493 2368 4403 2368 
L 570 2368 
C 480 2368 358 2368 358 2239 
C 358 2111 480 2111 576 2111 
L 4397 2111 
z
M 4403 832 
C 4493 832 4614 832 4614 960 
C 4614 1088 4493 1088 4397 1088 
L 576 1088 
C 480 1088 358 1088 358 960 
C 358 832 480 832 570 832 
L 4403 832 
z
" transform="scale(0.015625)"/>
      <path id="CMSY10-6" d="M 2618 1984 
L 4397 1984 
C 4506 1984 4621 1984 4621 2112 
C 4621 2240 4506 2240 4397 2240 
L 2618 2240 
L 2618 4048 
C 2618 4153 2618 4288 2490 4288 
C 2362 4288 2362 4172 2362 4068 
L 2362 2240 
L 576 2240 
C 467 2240 352 2240 352 2112 
C 352 1984 467 1984 576 1984 
L 2362 1984 
L 2362 256 
L 576 256 
C 467 256 352 256 352 128 
C 352 0 467 0 576 0 
L 4397 0 
C 4506 0 4621 0 4621 128 
C 4621 256 4506 256 4397 256 
L 2618 256 
L 2618 1984 
z
" transform="scale(0.015625)"/>
      <path id="NimbusRomNo9L-Regu-37" d="M 2874 4224 
L 506 4224 
L 128 3283 
L 237 3232 
C 512 3667 627 3750 979 3750 
L 2368 3750 
L 1101 -64 
L 1517 -64 
L 2874 4121 
L 2874 4224 
z
" transform="scale(0.015625)"/>
      <path id="CMMI12-3b" d="M 1248 -26 
C 1248 345 1126 620 864 620 
C 659 620 557 454 557 313 
C 557 172 653 0 870 0 
C 954 0 1024 25 1082 83 
C 1094 96 1101 96 1107 96 
C 1120 96 1120 6 1120 -26 
C 1120 -233 1082 -642 710 -1051 
C 640 -1127 640 -1140 640 -1152 
C 640 -1184 672 -1216 704 -1216 
C 755 -1216 1248 -749 1248 -26 
z
" transform="scale(0.015625)"/>
      <path id="StandardSymL-44" d="M 38 0 
L 3891 0 
L 2093 4416 
L 38 0 
z
M 493 327 
L 1856 3267 
L 3066 327 
L 493 327 
z
" transform="scale(0.015625)"/>
      <path id="CMMI12-78" d="M 3034 2624 
C 2829 2585 2752 2431 2752 2310 
C 2752 2156 2874 2105 2963 2105 
C 3155 2105 3290 2271 3290 2444 
C 3290 2694 2982 2816 2714 2816 
C 2323 2816 2106 2451 2048 2329 
C 1901 2790 1504 2816 1389 2816 
C 736 2816 390 1993 390 1849 
C 390 1823 416 1790 461 1790 
C 512 1790 525 1829 538 1855 
C 755 2572 1184 2687 1370 2687 
C 1658 2687 1715 2438 1715 2284 
C 1715 2143 1677 1993 1600 1678 
L 1382 778 
C 1286 390 1101 64 762 64 
C 730 64 570 64 435 126 
C 666 166 717 358 717 435 
C 717 563 621 640 499 640 
C 346 640 179 505 179 300 
C 179 57 480 -64 755 -64 
C 1062 -64 1280 153 1414 415 
C 1517 64 1837 -64 2074 -64 
C 2726 -64 3072 751 3072 896 
C 3072 929 3046 955 3008 955 
C 2950 955 2944 922 2925 870 
C 2752 300 2381 64 2093 64 
C 1869 64 1747 204 1747 467 
C 1747 607 1773 712 1875 1146 
L 2099 2039 
C 2195 2425 2413 2687 2707 2687 
C 2720 2687 2899 2687 3034 2624 
z
" transform="scale(0.015625)"/>
      <path id="NimbusRomNo9L-Regu-32" d="M 3040 879 
L 2957 912 
C 2720 544 2637 486 2349 486 
L 819 486 
L 1894 1621 
C 2464 2221 2714 2711 2714 3214 
C 2714 3858 2195 4352 1530 4352 
C 1178 4352 845 4211 608 3955 
C 403 3736 307 3530 198 3072 
L 333 3039 
C 589 3671 819 3878 1261 3878 
C 1798 3878 2163 3510 2163 2969 
C 2163 2466 1869 1866 1331 1292 
L 192 76 
L 192 0 
L 2688 0 
L 3040 879 
z
" transform="scale(0.015625)"/>
     </defs>
     <use xlink:href="#CMMI12-21" transform="scale(0.996264)"/>
     <use xlink:href="#CMMI12-44" transform="translate(60.743753 -16.107216) scale(0.737241)"/>
     <use xlink:href="#CMMI12-46" transform="translate(122.685118 -16.107216) scale(0.737241)"/>
     <use xlink:href="#CMMI12-3d" transform="translate(179.939272 0) scale(0.996264)"/>
     <use xlink:href="#CMMI12-4a" transform="translate(228.714191 0) scale(0.996264)"/>
     <use xlink:href="#CMR10-3d" transform="translate(313.996007 0) scale(0.996264)"/>
     <use xlink:href="#CMSY10-6" transform="translate(413.543861 0) scale(0.996264)"/>
     <use xlink:href="#NimbusRomNo9L-Regu-30" transform="translate(490.952568 0) scale(0.996264)"/>
     <use xlink:href="#CMMI12-3a" transform="translate(540.765769 0) scale(0.996264)"/>
     <use xlink:href="#NimbusRomNo9L-Regu-37" transform="translate(567.862946 0) scale(0.996264)"/>
     <use xlink:href="#NimbusRomNo9L-Regu-31" transform="translate(617.676146 0) scale(0.996264)"/>
     <use xlink:href="#CMMI12-3b" transform="translate(667.489347 0) scale(0.996264)"/>
     <use xlink:href="#StandardSymL-44" transform="translate(730.562697 0) scale(0.996264)"/>
     <use xlink:href="#CMMI12-78" transform="translate(791.534097 0) scale(0.996264)"/>
     <use xlink:href="#CMR10-3d" transform="translate(869.107303 0) scale(0.996264)"/>
     <use xlink:href="#NimbusRomNo9L-Regu-32" transform="translate(968.655156 0) scale(0.996264)"/>
    </g>
   </g>
   <g id="legend_1">
    <g id="patch_7">
     <path d="M 257.041738 149.273227 
L 379.256638 149.273227 
Q 384.056638 149.273227 384.056638 144.473227 
L 384.056638 78.920448 
Q 384.056638 74.120448 379.256638 74.120448 
L 257.041738 74.120448 
Q 252.241738 74.120448 252.241738 78.920448 
L 252.241738 144.473227 
Q 252.241738 149.273227 257.041738 149.273227 
z
" style="fill: #ffffff; opacity: 0.6; stroke: #cccccc; stroke-linejoin: miter"/>
    </g>
    <g id="line2d_9">
     <path d="M 261.841738 92.120448 
L 285.841738 92.120448 
L 309.841738 92.120448 
" style="fill: none; stroke: #1f77b4; stroke-width: 4; stroke-linecap: square"/>
    </g>
    <g id="text_10">
     <!-- $n^{(20)}$ -->
     <g transform="translate(329.041738 100.520448) scale(0.24 -0.24)">
      <use xlink:href="#CMMI12-6e" transform="scale(0.996264)"/>
      <use xlink:href="#CMR10-28" transform="translate(58.230047 36.163231) scale(0.737241)"/>
      <use xlink:href="#NimbusRomNo9L-Regu-32" transform="translate(86.834101 36.163231) scale(0.737241)"/>
      <use xlink:href="#NimbusRomNo9L-Regu-30" transform="translate(123.696143 36.163231) scale(0.737241)"/>
      <use xlink:href="#CMR10-29" transform="translate(160.558185 36.163231) scale(0.737241)"/>
     </g>
    </g>
    <g id="line2d_10">
     <path d="M 261.841738 126.096838 
L 285.841738 126.096838 
L 309.841738 126.096838 
" style="fill: none; stroke: #ff7f0e; stroke-width: 4; stroke-linecap: square"/>
    </g>
    <g id="text_11">
     <!-- $n^{(11)}$ -->
     <g transform="translate(329.041738 134.496838) scale(0.24 -0.24)">
      <use xlink:href="#CMMI12-6e" transform="scale(0.996264)"/>
      <use xlink:href="#CMR10-28" transform="translate(58.230047 36.163231) scale(0.737241)"/>
      <use xlink:href="#NimbusRomNo9L-Regu-31" transform="translate(86.834101 36.163231) scale(0.737241)"/>
      <use xlink:href="#NimbusRomNo9L-Regu-31" transform="translate(123.696143 36.163231) scale(0.737241)"/>
      <use xlink:href="#CMR10-29" transform="translate(160.558185 36.163231) scale(0.737241)"/>
     </g>
    </g>
   </g>
  </g>
 </g>
 <defs>
  <clipPath id="pcbf978bf42">
   <rect x="106.610522" y="62.120448" width="289.446115" height="204.9534"/>
  </clipPath>
 </defs>
</svg>
